<?xml version="1.0" encoding="utf-8"?>
<!-- Generator: Adobe Illustrator 18.1.1, SVG Export Plug-In . SVG Version: 6.00 Build 0)  -->
<svg version="1.1" id="Layer_1" xmlns="http://www.w3.org/2000/svg" xmlns:xlink="http://www.w3.org/1999/xlink" x="0px" y="0px"
	 viewBox="0 0 24.9 24.9" enable-background="new 0 0 24.9 24.9" xml:space="preserve">
<g>
	<path fill="#577DB8" d="M24.1,0H0.8C0.4,0,0,0.3,0,0.8v4.7c0,0.4,0.4,0.8,0.8,0.8h23.3c0.4,0,0.8-0.3,0.8-0.8V0.8
		C24.9,0.3,24.5,0,24.1,0z"/>
	<path fill="#577DB8" d="M24.1,9.3H0.8C0.4,9.3,0,9.7,0,10.1v4.7c0,0.4,0.4,0.8,0.8,0.8h23.3c0.4,0,0.8-0.3,0.8-0.8v-4.7
		C24.9,9.7,24.5,9.3,24.1,9.3z"/>
	<path fill="#577DB8" d="M24.1,18.7H0.8C0.4,18.7,0,19,0,19.4v4.7c0,0.4,0.4,0.8,0.8,0.8h23.3c0.4,0,0.8-0.3,0.8-0.8v-4.7
		C24.9,19,24.5,18.7,24.1,18.7z"/>
</g>
</svg>
