<?xml version="1.0" encoding="utf-8"?>
<!-- Generator: Adobe Illustrator 18.1.1, SVG Export Plug-In . SVG Version: 6.00 Build 0)  -->
<svg version="1.1" id="Layer_1" xmlns="http://www.w3.org/2000/svg" xmlns:xlink="http://www.w3.org/1999/xlink" x="0px" y="0px"
	 viewBox="0 0 386 66" enable-background="new 0 0 386 66" xml:space="preserve">
<g id="Logo_Title">
	<g>
		<polygon fill="#FFFFFF" points="10.6,23.5 33.3,65.3 33.3,53.7 		"/>
		<polygon fill="#FFFFFF" points="59.3,17.6 33.9,52.9 33.9,45.3 		"/>
		<path fill="none" stroke="#2B3188" stroke-linecap="round" stroke-miterlimit="10" d="M34.4,18.1"/>
		<g>
			<path fill="#587EB8" d="M22.3,14.7l-5.8-3.8l0.8-1.2l5.8,3.8L22.3,14.7z"/>
			<path fill="#587EB8" d="M25.2,7.9l1.3-0.5c0.3,0.7,0.4,1.4,0.2,2c-0.2,0.6-0.5,1.1-1.1,1.6c-0.7,0.6-1.5,0.8-2.4,0.7
				c-0.9-0.1-1.6-0.6-2.3-1.5c-0.7-0.9-1-1.8-1-2.7c0.1-0.9,0.5-1.6,1.3-2.2c0.7-0.5,1.4-0.8,2.1-0.7c0.4,0,0.9,0.2,1.4,0.6
				l-0.9,1.1c-0.3-0.2-0.6-0.3-0.9-0.3c-0.3,0-0.6,0.1-0.9,0.3c-0.4,0.3-0.6,0.7-0.6,1.2c0,0.5,0.2,1.1,0.7,1.7
				c0.5,0.7,1.1,1.1,1.5,1.2c0.5,0.1,0.9,0,1.3-0.3c0.3-0.2,0.5-0.5,0.5-0.9C25.5,8.8,25.5,8.4,25.2,7.9z"/>
			<path fill="#587EB8" d="M32.2,5.5l1.4,0.1C33.6,6.4,33.4,7,33,7.5c-0.4,0.5-1,0.8-1.7,0.9c-0.9,0.2-1.7,0-2.4-0.5
				c-0.7-0.5-1.2-1.3-1.4-2.4c-0.2-1.1-0.1-2.1,0.3-2.8c0.5-0.7,1.2-1.2,2.1-1.4c0.8-0.2,1.6-0.1,2.2,0.3c0.4,0.2,0.7,0.6,1,1.1
				l-1.3,0.6c-0.2-0.3-0.4-0.6-0.7-0.7c-0.3-0.2-0.6-0.2-1-0.1c-0.5,0.1-0.9,0.4-1.1,0.8c-0.2,0.4-0.3,1-0.1,1.9
				c0.2,0.9,0.5,1.4,0.8,1.7c0.4,0.3,0.8,0.4,1.3,0.3c0.4-0.1,0.7-0.3,0.9-0.5C32.1,6.4,32.2,6,32.2,5.5z"/>
			<path fill="#587EB8" d="M40.7,9.4L39.2,9L39,7.3l-2.7-0.7l-1,1.4l-1.4-0.4l4.4-6l1.4,0.4L40.7,9.4z M38.9,6l-0.3-2.7l-1.6,2.3
				L38.9,6z"/>
			<path fill="#587EB8" d="M40.7,9.9l3.8-5.8l1.2,0.8l-3.8,5.8L40.7,9.9z"/>
			<path fill="#587EB8" d="M46.6,15.9l-0.9-1.2l0.9-1.5L44.8,11l-1.6,0.5l-0.9-1.2l7.1-2.2l0.9,1.2L46.6,15.9z M47.1,12.2l1.4-2.4
				L46,10.7L47.1,12.2z"/>
		</g>
		<g>
			<path fill="#FFFFFF" stroke="#587EB8" stroke-miterlimit="10" d="M47.3,23.4c0,7.4-6.1,13.5-13.5,13.5s-13.3-6-13.3-13.4
				s6-13.4,13.4-13.4S47.3,16,47.3,23.4z"/>
			<path fill="none" stroke="#587EB8" stroke-miterlimit="10" d="M39.8,23.6c0,7.4-3,13.4-6.4,13.4s-6.2-6-6.2-13.4
				s2.8-13.4,6.2-13.4C36.9,10.1,39.8,16.1,39.8,23.6z"/>
			<path fill="#587EB8" d="M33.4,37.1l0-26.5c0-0.3,0.3-0.4,0.3-0.4c0,0,0.3,0.1,0.3,0.4l-0.1,26.6"/>
			<path fill="#587EB8" d="M19.3,24.1l27,0c0.3,0,0.6,0.8,0.6,0.8c0,0,0.2,0.7-0.1,0.7H19.3V24.1z"/>
			<path fill="none" stroke="#587EB8" stroke-linecap="round" stroke-miterlimit="10" d="M25.8,34.2c1.6-1.7,4.8-2.6,8.2-2.6
				c3.4,0,6.2,0.9,7.8,2.7"/>
			<path fill="none" stroke="#587EB8" stroke-linecap="round" stroke-miterlimit="10" d="M41.8,13.2c-1.6,1.7-4.8,2.6-8.2,2.6
				c-3.4,0-6.2-0.9-7.8-2.7"/>
		</g>
		<g>
			<polyline fill="#587EB8" points="33.9,44.5 1.7,8.9 33.9,52.4 			"/>
			<polyline fill="#587EB8" points="33.9,53 33.8,52.1 59.3,17.5 33.9,45.3 33.8,44.4 66.1,9.1 			"/>
			<g>
				<polyline fill="none" points="33.9,64.3 6.5,16.3 33.9,52.9 				"/>
				<path fill="#FFFFFF" d="M62.2,14.8"/>
				<path fill="#587EB8" d="M33.9,63.7L11.1,23.6l21.9,29l0.9,1.2 M33.9,52L1.7,8.9l32.2,56.4"/>
			</g>
			<g>
				<polyline fill="none" points="33.8,63.2 61.2,15.2 33.9,51.8 				"/>
				<path fill="#FFFFFF" d="M5.5,13.7"/>
				<path fill="#587EB8" d="M33.8,65.4L66.1,8.9L33.9,52"/>
			</g>
		</g>
	</g>
	<g>
		<g>
			<path fill="#587EB8" d="M82.6,26.1h-2V14.7h2V26.1z"/>
			<path fill="#587EB8" d="M87,18.3l0.1,0.9c0.3-0.3,0.6-0.6,1-0.8c0.4-0.2,0.8-0.3,1.3-0.3c0.4,0,0.7,0.1,1,0.2
				c0.3,0.1,0.6,0.3,0.8,0.5c0.2,0.2,0.4,0.5,0.5,0.9c0.1,0.4,0.2,0.8,0.2,1.4v5.1h-1.8v-5.1c0-0.3,0-0.5-0.1-0.7
				c-0.1-0.2-0.1-0.3-0.3-0.5c-0.1-0.1-0.3-0.2-0.4-0.2c-0.2-0.1-0.4-0.1-0.6-0.1c-0.4,0-0.7,0.1-0.9,0.3c-0.3,0.2-0.5,0.4-0.6,0.7
				v5.6h-1.8v-7.8H87z"/>
			<path fill="#587EB8" d="M96.4,16.4v1.9h1.4v1.3h-1.4V24c0,0.2,0,0.3,0.1,0.4s0.1,0.2,0.2,0.3c0.1,0.1,0.2,0.1,0.3,0.1
				c0.1,0,0.2,0,0.3,0c0.1,0,0.2,0,0.4,0c0.1,0,0.2,0,0.3,0v1.4c-0.1,0-0.3,0.1-0.5,0.1c-0.2,0-0.4,0.1-0.7,0.1
				c-0.3,0-0.6,0-0.8-0.1s-0.5-0.2-0.6-0.4c-0.2-0.2-0.3-0.4-0.4-0.7c-0.1-0.3-0.2-0.6-0.2-1v-4.5h-1.3v-1.3h1.3v-1.9H96.4z"/>
			<path fill="#587EB8" d="M103.1,26.3c-0.6,0-1.1-0.1-1.6-0.3s-0.9-0.5-1.2-0.8c-0.3-0.3-0.6-0.7-0.7-1.2c-0.2-0.5-0.3-1-0.3-1.5
				v-0.3c0-0.6,0.1-1.2,0.3-1.7c0.2-0.5,0.4-0.9,0.8-1.3c0.3-0.3,0.7-0.6,1.1-0.8c0.4-0.2,0.9-0.3,1.4-0.3c0.6,0,1.1,0.1,1.5,0.3
				c0.4,0.2,0.8,0.5,1,0.8c0.3,0.3,0.5,0.7,0.6,1.2c0.1,0.5,0.2,1,0.2,1.6v0.8h-5.1c0,0.3,0.1,0.6,0.2,0.8c0.1,0.3,0.2,0.5,0.4,0.7
				c0.2,0.2,0.4,0.3,0.6,0.4c0.2,0.1,0.5,0.2,0.8,0.2c0.4,0,0.8-0.1,1.1-0.3c0.3-0.2,0.6-0.4,0.8-0.7l0.9,0.9
				c-0.1,0.2-0.3,0.4-0.5,0.5c-0.2,0.2-0.4,0.3-0.7,0.5c-0.2,0.1-0.5,0.2-0.8,0.3C103.8,26.2,103.5,26.3,103.1,26.3z M102.9,19.6
				c-0.5,0-0.9,0.2-1.2,0.5c-0.3,0.3-0.5,0.8-0.6,1.4h3.3v-0.1c0-0.2-0.1-0.5-0.1-0.7c-0.1-0.2-0.2-0.4-0.3-0.6
				c-0.1-0.2-0.3-0.3-0.5-0.4C103.4,19.6,103.2,19.6,102.9,19.6z"/>
			<path fill="#587EB8" d="M112.2,19.9c-0.1,0-0.2,0-0.4,0c-0.1,0-0.2,0-0.4,0c-0.4,0-0.8,0.1-1,0.2c-0.3,0.2-0.5,0.4-0.6,0.7v5.4
				h-1.8v-7.8h1.7l0,0.9c0.2-0.3,0.4-0.6,0.7-0.7c0.3-0.2,0.6-0.3,1-0.3c0.1,0,0.2,0,0.3,0c0.1,0,0.2,0,0.3,0.1L112.2,19.9z"/>
			<path fill="#587EB8" d="M115.5,18.3l0.1,0.9c0.3-0.3,0.6-0.6,1-0.8c0.4-0.2,0.8-0.3,1.3-0.3c0.4,0,0.7,0.1,1,0.2
				c0.3,0.1,0.6,0.3,0.8,0.5c0.2,0.2,0.4,0.5,0.5,0.9c0.1,0.4,0.2,0.8,0.2,1.4v5.1h-1.8v-5.1c0-0.3,0-0.5-0.1-0.7
				c-0.1-0.2-0.1-0.3-0.3-0.5c-0.1-0.1-0.3-0.2-0.4-0.2c-0.2-0.1-0.4-0.1-0.6-0.1c-0.4,0-0.7,0.1-0.9,0.3c-0.3,0.2-0.5,0.4-0.6,0.7
				v5.6h-1.8v-7.8H115.5z"/>
			<path fill="#587EB8" d="M127.3,26.1c0-0.1-0.1-0.2-0.1-0.3c0-0.1-0.1-0.3-0.1-0.4c-0.1,0.1-0.2,0.2-0.4,0.3
				c-0.1,0.1-0.3,0.2-0.5,0.3c-0.2,0.1-0.4,0.1-0.6,0.2c-0.2,0-0.4,0.1-0.6,0.1c-0.4,0-0.7-0.1-1.1-0.2s-0.6-0.3-0.8-0.5
				c-0.2-0.2-0.4-0.5-0.5-0.7c-0.1-0.3-0.2-0.6-0.2-0.9c0-0.4,0.1-0.8,0.2-1.1c0.2-0.3,0.4-0.6,0.7-0.8c0.3-0.2,0.7-0.4,1.1-0.5
				c0.4-0.1,0.9-0.2,1.5-0.2h1.1v-0.5c0-0.4-0.1-0.7-0.3-1c-0.2-0.2-0.6-0.4-1-0.4c-0.2,0-0.4,0-0.6,0.1c-0.2,0.1-0.3,0.1-0.4,0.2
				c-0.1,0.1-0.2,0.2-0.3,0.3c-0.1,0.1-0.1,0.3-0.1,0.4h-1.8c0-0.3,0.1-0.6,0.2-0.9s0.4-0.5,0.6-0.8c0.3-0.2,0.6-0.4,1-0.5
				c0.4-0.1,0.8-0.2,1.3-0.2c0.4,0,0.8,0.1,1.2,0.2c0.4,0.1,0.7,0.3,1,0.5c0.3,0.2,0.5,0.5,0.6,0.8c0.1,0.3,0.2,0.7,0.2,1.2v3.5
				c0,0.7,0.1,1.3,0.3,1.7v0.1H127.3z M125.4,24.9c0.2,0,0.4,0,0.6-0.1c0.2-0.1,0.3-0.1,0.5-0.2c0.1-0.1,0.3-0.2,0.4-0.3
				c0.1-0.1,0.2-0.2,0.3-0.3v-1.5h-0.9c-0.7,0-1.1,0.1-1.5,0.3c-0.3,0.2-0.5,0.5-0.5,1c0,0.2,0,0.3,0.1,0.4c0.1,0.1,0.1,0.3,0.2,0.4
				c0.1,0.1,0.2,0.2,0.4,0.2C125,24.9,125.2,24.9,125.4,24.9z"/>
			<path fill="#587EB8" d="M133.4,16.4v1.9h1.4v1.3h-1.4V24c0,0.2,0,0.3,0.1,0.4s0.1,0.2,0.2,0.3c0.1,0.1,0.2,0.1,0.3,0.1
				c0.1,0,0.2,0,0.3,0s0.2,0,0.4,0c0.1,0,0.2,0,0.3,0v1.4c-0.1,0-0.3,0.1-0.5,0.1c-0.2,0-0.4,0.1-0.7,0.1c-0.3,0-0.6,0-0.8-0.1
				s-0.5-0.2-0.6-0.4c-0.2-0.2-0.3-0.4-0.4-0.7c-0.1-0.3-0.2-0.6-0.2-1v-4.5h-1.3v-1.3h1.3v-1.9H133.4z"/>
			<path fill="#587EB8" d="M136.6,16.3c0-0.3,0.1-0.5,0.3-0.7c0.2-0.2,0.4-0.3,0.7-0.3c0.3,0,0.6,0.1,0.7,0.3
				c0.2,0.2,0.3,0.4,0.3,0.7c0,0.3-0.1,0.5-0.3,0.7c-0.2,0.2-0.4,0.3-0.7,0.3c-0.3,0-0.6-0.1-0.7-0.3
				C136.7,16.8,136.6,16.6,136.6,16.3z M138.5,26.1h-1.8v-7.8h1.8V26.1z"/>
			<path fill="#587EB8" d="M140.6,22.2c0-0.6,0.1-1.1,0.2-1.6c0.2-0.5,0.4-0.9,0.7-1.3c0.3-0.4,0.7-0.6,1.1-0.8
				c0.4-0.2,1-0.3,1.5-0.3c0.6,0,1.1,0.1,1.5,0.3c0.5,0.2,0.8,0.5,1.1,0.8c0.3,0.4,0.5,0.8,0.7,1.3c0.2,0.5,0.2,1,0.2,1.6v0.2
				c0,0.6-0.1,1.1-0.2,1.6c-0.2,0.5-0.4,0.9-0.7,1.3c-0.3,0.4-0.7,0.6-1.1,0.8c-0.5,0.2-1,0.3-1.5,0.3c-0.6,0-1.1-0.1-1.5-0.3
				c-0.5-0.2-0.8-0.5-1.1-0.8c-0.3-0.4-0.5-0.8-0.7-1.3c-0.2-0.5-0.2-1-0.2-1.6V22.2z M142.4,22.3c0,0.4,0,0.7,0.1,1
				c0.1,0.3,0.2,0.6,0.3,0.8s0.4,0.4,0.6,0.6c0.2,0.1,0.5,0.2,0.8,0.2c0.3,0,0.6-0.1,0.8-0.2c0.2-0.1,0.4-0.3,0.6-0.6
				c0.2-0.2,0.3-0.5,0.3-0.8c0.1-0.3,0.1-0.6,0.1-1v-0.2c0-0.3,0-0.7-0.1-1c-0.1-0.3-0.2-0.6-0.3-0.8c-0.2-0.2-0.4-0.4-0.6-0.6
				c-0.2-0.1-0.5-0.2-0.8-0.2c-0.3,0-0.6,0.1-0.8,0.2c-0.2,0.1-0.4,0.3-0.6,0.6s-0.3,0.5-0.3,0.8c-0.1,0.3-0.1,0.6-0.1,1V22.3z"/>
			<path fill="#587EB8" d="M151.6,18.3l0.1,0.9c0.3-0.3,0.6-0.6,1-0.8c0.4-0.2,0.8-0.3,1.3-0.3c0.4,0,0.7,0.1,1,0.2
				c0.3,0.1,0.6,0.3,0.8,0.5c0.2,0.2,0.4,0.5,0.5,0.9c0.1,0.4,0.2,0.8,0.2,1.4v5.1h-1.8v-5.1c0-0.3,0-0.5-0.1-0.7
				c-0.1-0.2-0.1-0.3-0.3-0.5c-0.1-0.1-0.3-0.2-0.4-0.2c-0.2-0.1-0.4-0.1-0.6-0.1c-0.4,0-0.7,0.1-0.9,0.3c-0.3,0.2-0.5,0.4-0.6,0.7
				v5.6h-1.8v-7.8H151.6z"/>
			<path fill="#587EB8" d="M163.4,26.1c0-0.1-0.1-0.2-0.1-0.3c0-0.1-0.1-0.3-0.1-0.4c-0.1,0.1-0.2,0.2-0.4,0.3
				c-0.1,0.1-0.3,0.2-0.5,0.3c-0.2,0.1-0.4,0.1-0.6,0.2c-0.2,0-0.4,0.1-0.6,0.1c-0.4,0-0.7-0.1-1.1-0.2s-0.6-0.3-0.8-0.5
				c-0.2-0.2-0.4-0.5-0.5-0.7c-0.1-0.3-0.2-0.6-0.2-0.9c0-0.4,0.1-0.8,0.2-1.1c0.2-0.3,0.4-0.6,0.7-0.8c0.3-0.2,0.7-0.4,1.1-0.5
				c0.4-0.1,0.9-0.2,1.5-0.2h1.1v-0.5c0-0.4-0.1-0.7-0.3-1c-0.2-0.2-0.6-0.4-1-0.4c-0.2,0-0.4,0-0.6,0.1c-0.2,0.1-0.3,0.1-0.4,0.2
				s-0.2,0.2-0.3,0.3c-0.1,0.1-0.1,0.3-0.1,0.4h-1.8c0-0.3,0.1-0.6,0.2-0.9c0.2-0.3,0.4-0.5,0.6-0.8c0.3-0.2,0.6-0.4,1-0.5
				s0.8-0.2,1.3-0.2c0.4,0,0.8,0.1,1.2,0.2c0.4,0.1,0.7,0.3,1,0.5c0.3,0.2,0.5,0.5,0.6,0.8c0.1,0.3,0.2,0.7,0.2,1.2v3.5
				c0,0.7,0.1,1.3,0.3,1.7v0.1H163.4z M161.4,24.9c0.2,0,0.4,0,0.6-0.1c0.2-0.1,0.3-0.1,0.5-0.2c0.1-0.1,0.3-0.2,0.4-0.3
				c0.1-0.1,0.2-0.2,0.3-0.3v-1.5h-0.9c-0.7,0-1.1,0.1-1.5,0.3c-0.3,0.2-0.5,0.5-0.5,1c0,0.2,0,0.3,0.1,0.4c0.1,0.1,0.1,0.3,0.2,0.4
				c0.1,0.1,0.2,0.2,0.4,0.2C161.1,24.9,161.2,24.9,161.4,24.9z"/>
			<path fill="#587EB8" d="M169.1,26.1h-1.8V15h1.8V26.1z"/>
			<path fill="#587EB8" d="M184.8,22.4c-0.1,0.6-0.2,1.1-0.4,1.6c-0.2,0.5-0.5,0.9-0.9,1.2s-0.8,0.6-1.4,0.8
				c-0.5,0.2-1.2,0.3-1.9,0.3c-0.7,0-1.3-0.1-1.9-0.4c-0.6-0.3-1.1-0.6-1.5-1.1c-0.4-0.5-0.7-1-0.9-1.7c-0.2-0.7-0.3-1.4-0.3-2.2V20
				c0-0.8,0.1-1.6,0.3-2.2c0.2-0.7,0.5-1.2,0.9-1.7c0.4-0.5,0.9-0.8,1.5-1.1c0.6-0.3,1.2-0.4,1.9-0.4c0.7,0,1.3,0.1,1.8,0.3
				c0.5,0.2,1,0.5,1.3,0.8c0.4,0.3,0.6,0.8,0.9,1.2c0.2,0.5,0.3,1,0.4,1.6h-2c0-0.4-0.1-0.7-0.2-1c-0.1-0.3-0.2-0.5-0.4-0.7
				c-0.2-0.2-0.4-0.4-0.7-0.5c-0.3-0.1-0.6-0.2-1-0.2c-0.5,0-0.8,0.1-1.2,0.3c-0.3,0.2-0.6,0.4-0.8,0.7c-0.2,0.3-0.4,0.7-0.5,1.2
				c-0.1,0.5-0.2,1-0.2,1.6v0.9c0,0.6,0,1.1,0.1,1.6c0.1,0.5,0.3,0.9,0.5,1.2c0.2,0.3,0.5,0.6,0.8,0.8c0.3,0.2,0.7,0.3,1.2,0.3
				c0.4,0,0.8,0,1.1-0.1c0.3-0.1,0.5-0.2,0.7-0.4c0.2-0.2,0.3-0.4,0.5-0.7c0.1-0.3,0.2-0.6,0.2-1H184.8z"/>
			<path fill="#587EB8" d="M186.6,22.2c0-0.6,0.1-1.1,0.2-1.6c0.2-0.5,0.4-0.9,0.7-1.3c0.3-0.4,0.7-0.6,1.1-0.8
				c0.4-0.2,1-0.3,1.5-0.3c0.6,0,1.1,0.1,1.5,0.3c0.5,0.2,0.8,0.5,1.1,0.8c0.3,0.4,0.5,0.8,0.7,1.3c0.2,0.5,0.2,1,0.2,1.6v0.2
				c0,0.6-0.1,1.1-0.2,1.6c-0.2,0.5-0.4,0.9-0.7,1.3c-0.3,0.4-0.7,0.6-1.1,0.8c-0.5,0.2-1,0.3-1.5,0.3c-0.6,0-1.1-0.1-1.5-0.3
				c-0.5-0.2-0.8-0.5-1.1-0.8c-0.3-0.4-0.5-0.8-0.7-1.3c-0.2-0.5-0.2-1-0.2-1.6V22.2z M188.4,22.3c0,0.4,0,0.7,0.1,1
				c0.1,0.3,0.2,0.6,0.3,0.8c0.2,0.2,0.4,0.4,0.6,0.6c0.2,0.1,0.5,0.2,0.8,0.2c0.3,0,0.6-0.1,0.8-0.2c0.2-0.1,0.4-0.3,0.6-0.6
				s0.3-0.5,0.3-0.8c0.1-0.3,0.1-0.6,0.1-1v-0.2c0-0.3,0-0.7-0.1-1c-0.1-0.3-0.2-0.6-0.3-0.8c-0.2-0.2-0.4-0.4-0.6-0.6
				c-0.2-0.1-0.5-0.2-0.8-0.2c-0.3,0-0.6,0.1-0.8,0.2c-0.2,0.1-0.4,0.3-0.6,0.6c-0.2,0.2-0.3,0.5-0.3,0.8c-0.1,0.3-0.1,0.6-0.1,1
				V22.3z"/>
			<path fill="#587EB8" d="M195.6,22.2c0-0.6,0.1-1.1,0.2-1.6c0.2-0.5,0.4-0.9,0.7-1.3c0.3-0.4,0.7-0.6,1.1-0.8
				c0.4-0.2,1-0.3,1.5-0.3c0.6,0,1.1,0.1,1.5,0.3c0.5,0.2,0.8,0.5,1.1,0.8c0.3,0.4,0.5,0.8,0.7,1.3c0.2,0.5,0.2,1,0.2,1.6v0.2
				c0,0.6-0.1,1.1-0.2,1.6c-0.2,0.5-0.4,0.9-0.7,1.3c-0.3,0.4-0.7,0.6-1.1,0.8c-0.5,0.2-1,0.3-1.5,0.3c-0.6,0-1.1-0.1-1.5-0.3
				c-0.5-0.2-0.8-0.5-1.1-0.8c-0.3-0.4-0.5-0.8-0.7-1.3c-0.2-0.5-0.2-1-0.2-1.6V22.2z M197.3,22.3c0,0.4,0,0.7,0.1,1
				c0.1,0.3,0.2,0.6,0.3,0.8s0.4,0.4,0.6,0.6c0.2,0.1,0.5,0.2,0.8,0.2c0.3,0,0.6-0.1,0.8-0.2c0.2-0.1,0.4-0.3,0.6-0.6
				s0.3-0.5,0.3-0.8c0.1-0.3,0.1-0.6,0.1-1v-0.2c0-0.3,0-0.7-0.1-1c-0.1-0.3-0.2-0.6-0.3-0.8c-0.2-0.2-0.4-0.4-0.6-0.6
				c-0.2-0.1-0.5-0.2-0.8-0.2c-0.3,0-0.6,0.1-0.8,0.2c-0.2,0.1-0.4,0.3-0.6,0.6s-0.3,0.5-0.3,0.8c-0.1,0.3-0.1,0.6-0.1,1V22.3z"/>
			<path fill="#587EB8" d="M209,19.9c-0.1,0-0.2,0-0.4,0c-0.1,0-0.2,0-0.4,0c-0.4,0-0.8,0.1-1,0.2c-0.3,0.2-0.5,0.4-0.6,0.7v5.4
				h-1.8v-7.8h1.7l0,0.9c0.2-0.3,0.4-0.6,0.7-0.7c0.3-0.2,0.6-0.3,1-0.3c0.1,0,0.2,0,0.3,0c0.1,0,0.2,0,0.3,0.1L209,19.9z"/>
			<path fill="#587EB8" d="M210.1,22.2c0-0.6,0.1-1.1,0.2-1.6c0.1-0.5,0.3-0.9,0.6-1.3s0.6-0.6,1-0.8c0.4-0.2,0.8-0.3,1.3-0.3
				c0.4,0,0.8,0.1,1.1,0.2c0.3,0.1,0.6,0.4,0.9,0.6v-4h1.8v11.1h-1.6l-0.1-0.8c-0.3,0.3-0.5,0.5-0.9,0.7c-0.3,0.2-0.8,0.2-1.2,0.2
				c-0.5,0-0.9-0.1-1.3-0.3c-0.4-0.2-0.7-0.5-1-0.8c-0.3-0.4-0.5-0.8-0.6-1.3c-0.1-0.5-0.2-1-0.2-1.6V22.2z M211.9,22.3
				c0,0.3,0,0.7,0.1,1c0.1,0.3,0.2,0.6,0.3,0.8s0.3,0.4,0.5,0.5c0.2,0.1,0.5,0.2,0.8,0.2c0.4,0,0.7-0.1,1-0.3
				c0.3-0.2,0.5-0.4,0.6-0.7v-3.3c-0.1-0.3-0.4-0.5-0.6-0.7c-0.3-0.2-0.6-0.3-1-0.3c-0.3,0-0.6,0.1-0.8,0.2
				c-0.2,0.1-0.4,0.3-0.5,0.5c-0.1,0.2-0.2,0.5-0.3,0.8c-0.1,0.3-0.1,0.6-0.1,1V22.3z"/>
			<path fill="#587EB8" d="M219.4,16.3c0-0.3,0.1-0.5,0.3-0.7c0.2-0.2,0.4-0.3,0.7-0.3c0.3,0,0.6,0.1,0.7,0.3
				c0.2,0.2,0.3,0.4,0.3,0.7c0,0.3-0.1,0.5-0.3,0.7s-0.4,0.3-0.7,0.3c-0.3,0-0.6-0.1-0.7-0.3C219.5,16.8,219.4,16.6,219.4,16.3z
				 M221.2,26.1h-1.8v-7.8h1.8V26.1z"/>
			<path fill="#587EB8" d="M225.3,18.3l0,0.9c0.3-0.3,0.6-0.6,1-0.8c0.4-0.2,0.8-0.3,1.3-0.3c0.4,0,0.7,0.1,1,0.2
				c0.3,0.1,0.6,0.3,0.8,0.5c0.2,0.2,0.4,0.5,0.5,0.9c0.1,0.4,0.2,0.8,0.2,1.4v5.1h-1.8v-5.1c0-0.3,0-0.5-0.1-0.7
				c-0.1-0.2-0.1-0.3-0.3-0.5c-0.1-0.1-0.3-0.2-0.4-0.2c-0.2-0.1-0.4-0.1-0.6-0.1c-0.4,0-0.7,0.1-0.9,0.3c-0.3,0.2-0.5,0.4-0.6,0.7
				v5.6h-1.8v-7.8H225.3z"/>
			<path fill="#587EB8" d="M237.1,26.1c0-0.1-0.1-0.2-0.1-0.3c0-0.1-0.1-0.3-0.1-0.4c-0.1,0.1-0.2,0.2-0.4,0.3
				c-0.1,0.1-0.3,0.2-0.5,0.3c-0.2,0.1-0.4,0.1-0.6,0.2s-0.4,0.1-0.6,0.1c-0.4,0-0.7-0.1-1.1-0.2c-0.3-0.1-0.6-0.3-0.8-0.5
				c-0.2-0.2-0.4-0.5-0.5-0.7c-0.1-0.3-0.2-0.6-0.2-0.9c0-0.4,0.1-0.8,0.2-1.1c0.2-0.3,0.4-0.6,0.7-0.8c0.3-0.2,0.7-0.4,1.1-0.5
				c0.4-0.1,0.9-0.2,1.5-0.2h1.1v-0.5c0-0.4-0.1-0.7-0.3-1c-0.2-0.2-0.6-0.4-1-0.4c-0.2,0-0.4,0-0.6,0.1c-0.2,0.1-0.3,0.1-0.4,0.2
				c-0.1,0.1-0.2,0.2-0.3,0.3c-0.1,0.1-0.1,0.3-0.1,0.4h-1.8c0-0.3,0.1-0.6,0.2-0.9c0.2-0.3,0.4-0.5,0.6-0.8c0.3-0.2,0.6-0.4,1-0.5
				s0.8-0.2,1.3-0.2c0.4,0,0.8,0.1,1.2,0.2s0.7,0.3,1,0.5c0.3,0.2,0.5,0.5,0.6,0.8c0.1,0.3,0.2,0.7,0.2,1.2v3.5
				c0,0.7,0.1,1.3,0.3,1.7v0.1H237.1z M235.2,24.9c0.2,0,0.4,0,0.6-0.1c0.2-0.1,0.3-0.1,0.5-0.2c0.1-0.1,0.3-0.2,0.4-0.3
				c0.1-0.1,0.2-0.2,0.3-0.3v-1.5h-0.9c-0.7,0-1.1,0.1-1.5,0.3c-0.3,0.2-0.5,0.5-0.5,1c0,0.2,0,0.3,0.1,0.4c0.1,0.1,0.1,0.3,0.2,0.4
				c0.1,0.1,0.2,0.2,0.4,0.2C234.8,24.9,235,24.9,235.2,24.9z"/>
			<path fill="#587EB8" d="M243.2,16.4v1.9h1.4v1.3h-1.4V24c0,0.2,0,0.3,0.1,0.4c0,0.1,0.1,0.2,0.2,0.3c0.1,0.1,0.2,0.1,0.3,0.1
				c0.1,0,0.2,0,0.3,0c0.1,0,0.2,0,0.4,0c0.1,0,0.2,0,0.3,0v1.4c-0.1,0-0.3,0.1-0.5,0.1c-0.2,0-0.4,0.1-0.7,0.1
				c-0.3,0-0.6,0-0.8-0.1s-0.5-0.2-0.6-0.4c-0.2-0.2-0.3-0.4-0.4-0.7c-0.1-0.3-0.2-0.6-0.2-1v-4.5h-1.3v-1.3h1.3v-1.9H243.2z"/>
			<path fill="#587EB8" d="M246.5,16.3c0-0.3,0.1-0.5,0.3-0.7c0.2-0.2,0.4-0.3,0.7-0.3s0.6,0.1,0.7,0.3c0.2,0.2,0.3,0.4,0.3,0.7
				c0,0.3-0.1,0.5-0.3,0.7s-0.4,0.3-0.7,0.3s-0.6-0.1-0.7-0.3C246.6,16.8,246.5,16.6,246.5,16.3z M248.3,26.1h-1.8v-7.8h1.8V26.1z"
				/>
			<path fill="#587EB8" d="M252.4,18.3l0,0.9c0.3-0.3,0.6-0.6,1-0.8c0.4-0.2,0.8-0.3,1.3-0.3c0.4,0,0.7,0.1,1,0.2
				c0.3,0.1,0.6,0.3,0.8,0.5c0.2,0.2,0.4,0.5,0.5,0.9c0.1,0.4,0.2,0.8,0.2,1.4v5.1h-1.8v-5.1c0-0.3,0-0.5-0.1-0.7
				c-0.1-0.2-0.1-0.3-0.3-0.5c-0.1-0.1-0.3-0.2-0.4-0.2c-0.2-0.1-0.4-0.1-0.6-0.1c-0.4,0-0.7,0.1-0.9,0.3c-0.3,0.2-0.5,0.4-0.6,0.7
				v5.6h-1.8v-7.8H252.4z"/>
			<path fill="#587EB8" d="M259.2,22.2c0-0.6,0.1-1.1,0.2-1.6c0.1-0.5,0.4-0.9,0.6-1.3c0.3-0.4,0.6-0.6,1-0.8
				c0.4-0.2,0.8-0.3,1.3-0.3c0.5,0,0.9,0.1,1.2,0.2c0.3,0.2,0.6,0.4,0.9,0.7l0.1-0.8h1.6v7.6c0,0.5-0.1,1-0.3,1.4
				c-0.2,0.4-0.4,0.8-0.7,1c-0.3,0.3-0.7,0.5-1.1,0.6c-0.4,0.1-0.9,0.2-1.4,0.2c-0.2,0-0.5,0-0.7-0.1s-0.5-0.1-0.8-0.2
				s-0.5-0.2-0.8-0.4c-0.2-0.2-0.5-0.4-0.6-0.6l0.8-1.1c0.3,0.3,0.6,0.6,0.9,0.7c0.3,0.2,0.7,0.2,1.1,0.2c0.6,0,1-0.2,1.4-0.5
				c0.3-0.3,0.5-0.8,0.5-1.4v-0.5c-0.2,0.3-0.5,0.5-0.9,0.6c-0.3,0.1-0.7,0.2-1.2,0.2c-0.5,0-0.9-0.1-1.3-0.3
				c-0.4-0.2-0.7-0.5-1-0.8c-0.3-0.4-0.5-0.8-0.6-1.3c-0.1-0.5-0.2-1-0.2-1.6V22.2z M261,22.3c0,0.3,0,0.7,0.1,1
				c0.1,0.3,0.2,0.6,0.3,0.8s0.3,0.4,0.6,0.5c0.2,0.1,0.5,0.2,0.8,0.2c0.4,0,0.7-0.1,1-0.2c0.2-0.2,0.5-0.4,0.6-0.7v-3.4
				c-0.2-0.3-0.4-0.5-0.6-0.7c-0.3-0.2-0.6-0.2-1-0.2c-0.3,0-0.6,0.1-0.8,0.2c-0.2,0.1-0.4,0.3-0.6,0.5c-0.1,0.2-0.3,0.5-0.3,0.8
				c-0.1,0.3-0.1,0.6-0.1,1V22.3z"/>
			<path fill="#587EB8" d="M281.7,22.4c-0.1,0.6-0.2,1.1-0.4,1.6c-0.2,0.5-0.5,0.9-0.9,1.2c-0.4,0.3-0.8,0.6-1.4,0.8
				c-0.5,0.2-1.2,0.3-1.9,0.3c-0.7,0-1.3-0.1-1.9-0.4c-0.6-0.3-1.1-0.6-1.5-1.1c-0.4-0.5-0.7-1-0.9-1.7c-0.2-0.7-0.3-1.4-0.3-2.2V20
				c0-0.8,0.1-1.6,0.3-2.2c0.2-0.7,0.5-1.2,0.9-1.7c0.4-0.5,0.9-0.8,1.5-1.1c0.6-0.3,1.2-0.4,1.9-0.4c0.7,0,1.3,0.1,1.8,0.3
				c0.5,0.2,1,0.5,1.3,0.8c0.4,0.3,0.6,0.8,0.9,1.2c0.2,0.5,0.3,1,0.4,1.6h-2c0-0.4-0.1-0.7-0.2-1c-0.1-0.3-0.2-0.5-0.4-0.7
				c-0.2-0.2-0.4-0.4-0.7-0.5c-0.3-0.1-0.6-0.2-1-0.2c-0.5,0-0.8,0.1-1.2,0.3c-0.3,0.2-0.6,0.4-0.8,0.7c-0.2,0.3-0.4,0.7-0.5,1.2
				c-0.1,0.5-0.2,1-0.2,1.6v0.9c0,0.6,0,1.1,0.1,1.6s0.3,0.9,0.5,1.2c0.2,0.3,0.5,0.6,0.8,0.8c0.3,0.2,0.7,0.3,1.2,0.3
				c0.4,0,0.8,0,1.1-0.1c0.3-0.1,0.5-0.2,0.7-0.4c0.2-0.2,0.3-0.4,0.5-0.7c0.1-0.3,0.2-0.6,0.2-1H281.7z"/>
			<path fill="#587EB8" d="M283.5,22.2c0-0.6,0.1-1.1,0.2-1.6c0.2-0.5,0.4-0.9,0.7-1.3c0.3-0.4,0.7-0.6,1.1-0.8
				c0.4-0.2,1-0.3,1.5-0.3c0.6,0,1.1,0.1,1.5,0.3c0.5,0.2,0.8,0.5,1.1,0.8c0.3,0.4,0.5,0.8,0.7,1.3c0.2,0.5,0.2,1,0.2,1.6v0.2
				c0,0.6-0.1,1.1-0.2,1.6c-0.2,0.5-0.4,0.9-0.7,1.3c-0.3,0.4-0.7,0.6-1.1,0.8c-0.5,0.2-1,0.3-1.5,0.3c-0.6,0-1.1-0.1-1.5-0.3
				c-0.5-0.2-0.8-0.5-1.1-0.8c-0.3-0.4-0.6-0.8-0.7-1.3c-0.2-0.5-0.2-1-0.2-1.6V22.2z M285.3,22.3c0,0.4,0,0.7,0.1,1
				c0.1,0.3,0.2,0.6,0.3,0.8c0.2,0.2,0.4,0.4,0.6,0.6c0.2,0.1,0.5,0.2,0.8,0.2c0.3,0,0.6-0.1,0.8-0.2c0.2-0.1,0.4-0.3,0.6-0.6
				s0.3-0.5,0.3-0.8c0.1-0.3,0.1-0.6,0.1-1v-0.2c0-0.3,0-0.7-0.1-1c-0.1-0.3-0.2-0.6-0.3-0.8c-0.2-0.2-0.4-0.4-0.6-0.6
				c-0.2-0.1-0.5-0.2-0.8-0.2c-0.3,0-0.6,0.1-0.8,0.2c-0.2,0.1-0.4,0.3-0.6,0.6c-0.2,0.2-0.3,0.5-0.3,0.8c-0.1,0.3-0.1,0.6-0.1,1
				V22.3z"/>
			<path fill="#587EB8" d="M297.6,25.4c-0.2,0.3-0.5,0.5-0.9,0.7c-0.4,0.2-0.8,0.2-1.3,0.2c-0.4,0-0.7-0.1-1.1-0.2
				c-0.3-0.1-0.6-0.3-0.8-0.5c-0.2-0.2-0.4-0.5-0.5-0.9c-0.1-0.4-0.2-0.8-0.2-1.3v-5.1h1.8v5.1c0,0.3,0,0.5,0.1,0.7
				c0.1,0.2,0.2,0.3,0.3,0.4c0.1,0.1,0.2,0.2,0.4,0.2c0.1,0,0.3,0.1,0.5,0.1c0.5,0,0.8-0.1,1.1-0.2c0.3-0.2,0.5-0.4,0.6-0.7v-5.6
				h1.8v7.8h-1.7L297.6,25.4z"/>
			<path fill="#587EB8" d="M303.2,18.3l0,0.9c0.3-0.3,0.6-0.6,1-0.8c0.4-0.2,0.8-0.3,1.3-0.3c0.4,0,0.7,0.1,1,0.2
				c0.3,0.1,0.6,0.3,0.8,0.5c0.2,0.2,0.4,0.5,0.5,0.9c0.1,0.4,0.2,0.8,0.2,1.4v5.1h-1.8v-5.1c0-0.3,0-0.5-0.1-0.7
				c-0.1-0.2-0.1-0.3-0.3-0.5c-0.1-0.1-0.3-0.2-0.4-0.2c-0.2-0.1-0.4-0.1-0.6-0.1c-0.4,0-0.7,0.1-0.9,0.3c-0.3,0.2-0.5,0.4-0.6,0.7
				v5.6h-1.8v-7.8H303.2z"/>
			<path fill="#587EB8" d="M313.6,24.9c0.2,0,0.4,0,0.6-0.1c0.2-0.1,0.3-0.2,0.5-0.3c0.1-0.1,0.2-0.3,0.3-0.4
				c0.1-0.2,0.1-0.3,0.1-0.5h1.7c0,0.4-0.1,0.7-0.3,1.1c-0.2,0.3-0.4,0.6-0.7,0.9c-0.3,0.2-0.6,0.4-1,0.6c-0.4,0.1-0.8,0.2-1.2,0.2
				c-0.6,0-1.1-0.1-1.6-0.3c-0.4-0.2-0.8-0.5-1.1-0.8c-0.3-0.4-0.5-0.8-0.7-1.3c-0.1-0.5-0.2-1-0.2-1.5v-0.3c0-0.5,0.1-1,0.2-1.5
				c0.1-0.5,0.4-0.9,0.7-1.3c0.3-0.4,0.7-0.6,1.1-0.8c0.4-0.2,1-0.3,1.6-0.3c0.5,0,0.9,0.1,1.3,0.2c0.4,0.1,0.7,0.3,1,0.6
				c0.3,0.3,0.5,0.6,0.7,0.9c0.2,0.4,0.2,0.8,0.3,1.2h-1.7c0-0.2-0.1-0.4-0.1-0.6c-0.1-0.2-0.2-0.4-0.3-0.5
				c-0.1-0.1-0.3-0.3-0.5-0.3c-0.2-0.1-0.4-0.1-0.6-0.1c-0.4,0-0.6,0.1-0.9,0.2c-0.2,0.1-0.4,0.3-0.5,0.6c-0.1,0.2-0.2,0.5-0.3,0.8
				c-0.1,0.3-0.1,0.6-0.1,0.9v0.3c0,0.3,0,0.6,0.1,0.9c0.1,0.3,0.1,0.6,0.3,0.8c0.1,0.2,0.3,0.4,0.5,0.6
				C312.9,24.8,313.2,24.9,313.6,24.9z"/>
			<path fill="#587EB8" d="M318.7,16.3c0-0.3,0.1-0.5,0.3-0.7c0.2-0.2,0.4-0.3,0.7-0.3c0.3,0,0.6,0.1,0.7,0.3
				c0.2,0.2,0.3,0.4,0.3,0.7c0,0.3-0.1,0.5-0.3,0.7c-0.2,0.2-0.4,0.3-0.7,0.3c-0.3,0-0.6-0.1-0.7-0.3
				C318.7,16.8,318.7,16.6,318.7,16.3z M320.5,26.1h-1.8v-7.8h1.8V26.1z"/>
			<path fill="#587EB8" d="M324.8,26.1h-1.8V15h1.8V26.1z"/>
			<path fill="#587EB8" d="M331.2,22.2c0-0.6,0.1-1.1,0.2-1.6s0.4-0.9,0.7-1.3c0.3-0.4,0.7-0.6,1.1-0.8c0.4-0.2,1-0.3,1.5-0.3
				c0.6,0,1.1,0.1,1.5,0.3c0.5,0.2,0.8,0.5,1.1,0.8c0.3,0.4,0.5,0.8,0.7,1.3c0.2,0.5,0.2,1,0.2,1.6v0.2c0,0.6-0.1,1.1-0.2,1.6
				c-0.2,0.5-0.4,0.9-0.7,1.3c-0.3,0.4-0.7,0.6-1.1,0.8c-0.5,0.2-1,0.3-1.5,0.3c-0.6,0-1.1-0.1-1.5-0.3c-0.5-0.2-0.8-0.5-1.1-0.8
				c-0.3-0.4-0.6-0.8-0.7-1.3c-0.2-0.5-0.2-1-0.2-1.6V22.2z M332.9,22.3c0,0.4,0,0.7,0.1,1c0.1,0.3,0.2,0.6,0.3,0.8
				c0.2,0.2,0.4,0.4,0.6,0.6c0.2,0.1,0.5,0.2,0.8,0.2c0.3,0,0.6-0.1,0.8-0.2c0.2-0.1,0.4-0.3,0.6-0.6c0.2-0.2,0.3-0.5,0.3-0.8
				c0.1-0.3,0.1-0.6,0.1-1v-0.2c0-0.3,0-0.7-0.1-1c-0.1-0.3-0.2-0.6-0.3-0.8c-0.2-0.2-0.4-0.4-0.6-0.6c-0.2-0.1-0.5-0.2-0.8-0.2
				c-0.3,0-0.6,0.1-0.8,0.2c-0.2,0.1-0.4,0.3-0.6,0.6c-0.2,0.2-0.3,0.5-0.3,0.8c-0.1,0.3-0.1,0.6-0.1,1V22.3z"/>
			<path fill="#587EB8" d="M341.1,26.1v-6.5h-1.2v-1.3h1.2v-0.7c0-0.4,0.1-0.8,0.2-1.2c0.1-0.3,0.3-0.6,0.5-0.8
				c0.2-0.2,0.5-0.4,0.9-0.5c0.3-0.1,0.7-0.2,1.1-0.2c0.2,0,0.3,0,0.5,0c0.2,0,0.3,0.1,0.5,0.1l0,1.4c-0.1,0-0.2,0-0.3,0
				c-0.1,0-0.2,0-0.4,0c-0.4,0-0.7,0.1-0.9,0.3c-0.2,0.2-0.3,0.5-0.3,0.9v0.7h1.6v1.3h-1.6v6.5H341.1z"/>
		</g>
		<g>
			<path fill="#587EB8" d="M88.3,44.8h-5l-0.9,2.8h-3l5.1-13.7h2.6l5.1,13.7h-3L88.3,44.8z M84.1,42.5h3.4l-1.7-5.1L84.1,42.5z"/>
			<path fill="#587EB8" d="M98.5,47.8c-0.7,0-1.4-0.1-2-0.4c-0.6-0.2-1.1-0.6-1.5-1c-0.4-0.4-0.7-0.9-0.9-1.5
				c-0.2-0.6-0.3-1.2-0.3-1.8v-0.3c0-0.7,0.1-1.4,0.3-2c0.2-0.6,0.5-1.1,0.9-1.6c0.4-0.4,0.9-0.8,1.4-1c0.5-0.2,1.2-0.4,1.8-0.4
				c0.7,0,1.3,0.1,1.8,0.3c0.5,0.2,1,0.5,1.3,1c0.4,0.4,0.6,0.9,0.8,1.5c0.2,0.6,0.3,1.2,0.3,1.9v1.1h-6.1c0,0.3,0.1,0.6,0.3,0.8
				c0.1,0.3,0.3,0.5,0.5,0.6c0.2,0.2,0.4,0.3,0.7,0.4c0.3,0.1,0.6,0.2,0.9,0.2c0.5,0,0.9-0.1,1.3-0.3c0.4-0.2,0.7-0.4,1-0.8l1.3,1.4
				c-0.2,0.2-0.3,0.4-0.6,0.6c-0.2,0.2-0.5,0.4-0.8,0.6c-0.3,0.2-0.7,0.3-1.1,0.4C99.3,47.7,98.9,47.8,98.5,47.8z M98.2,39.9
				c-0.3,0-0.5,0-0.7,0.1c-0.2,0.1-0.4,0.2-0.5,0.4c-0.1,0.2-0.3,0.4-0.4,0.6c-0.1,0.2-0.2,0.5-0.2,0.8h3.5v-0.2
				c0-0.3,0-0.5-0.1-0.7c-0.1-0.2-0.2-0.4-0.3-0.6c-0.1-0.2-0.3-0.3-0.5-0.4C98.7,40,98.5,39.9,98.2,39.9z"/>
			<path fill="#587EB8" d="M109.8,40.4c-0.1,0-0.3,0-0.5,0c-0.2,0-0.3,0-0.5,0c-0.5,0-0.9,0.1-1.2,0.3c-0.3,0.2-0.5,0.4-0.7,0.7v6.2
				h-2.5v-9.5h2.4l0.1,1.1c0.2-0.4,0.5-0.7,0.9-1c0.4-0.2,0.8-0.3,1.2-0.3c0.1,0,0.3,0,0.4,0c0.1,0,0.3,0,0.4,0.1L109.8,40.4z"/>
			<path fill="#587EB8" d="M111,42.7c0-0.7,0.1-1.3,0.3-1.9c0.2-0.6,0.5-1.1,0.9-1.5c0.4-0.4,0.9-0.8,1.4-1c0.6-0.2,1.2-0.4,1.9-0.4
				c0.7,0,1.4,0.1,1.9,0.4c0.6,0.2,1,0.6,1.4,1c0.4,0.4,0.7,0.9,0.9,1.5c0.2,0.6,0.3,1.2,0.3,1.9v0.2c0,0.7-0.1,1.3-0.3,1.9
				c-0.2,0.6-0.5,1.1-0.9,1.5c-0.4,0.4-0.9,0.8-1.4,1c-0.6,0.2-1.2,0.4-1.9,0.4c-0.7,0-1.4-0.1-1.9-0.4c-0.6-0.2-1-0.6-1.4-1
				c-0.4-0.4-0.7-0.9-0.9-1.5c-0.2-0.6-0.3-1.2-0.3-1.9V42.7z M113.5,42.9c0,0.4,0,0.8,0.1,1.1c0.1,0.3,0.2,0.6,0.3,0.9
				c0.2,0.2,0.4,0.4,0.6,0.6c0.2,0.1,0.6,0.2,0.9,0.2c0.4,0,0.7-0.1,0.9-0.2c0.2-0.1,0.5-0.3,0.6-0.6c0.2-0.2,0.3-0.5,0.3-0.9
				c0.1-0.3,0.1-0.7,0.1-1.1v-0.2c0-0.4,0-0.7-0.1-1.1c-0.1-0.3-0.2-0.6-0.3-0.9c-0.2-0.3-0.4-0.5-0.6-0.6c-0.3-0.2-0.6-0.2-0.9-0.2
				c-0.4,0-0.7,0.1-0.9,0.2c-0.2,0.1-0.5,0.4-0.6,0.6c-0.2,0.3-0.3,0.6-0.3,0.9c-0.1,0.3-0.1,0.7-0.1,1.1V42.9z"/>
			<path fill="#587EB8" d="M127.4,45c0-0.1,0-0.3-0.1-0.4c-0.1-0.1-0.2-0.2-0.3-0.3c-0.1-0.1-0.3-0.2-0.6-0.3
				c-0.3-0.1-0.6-0.2-1-0.3c-0.5-0.1-0.9-0.2-1.4-0.4c-0.4-0.2-0.8-0.4-1.1-0.6c-0.3-0.2-0.5-0.5-0.7-0.8c-0.2-0.3-0.3-0.7-0.3-1.1
				c0-0.4,0.1-0.8,0.3-1.1c0.2-0.4,0.4-0.7,0.7-0.9c0.3-0.3,0.7-0.5,1.2-0.6c0.5-0.2,1-0.2,1.6-0.2c0.6,0,1.2,0.1,1.7,0.2
				c0.5,0.2,0.9,0.4,1.3,0.6s0.6,0.6,0.8,1c0.2,0.4,0.3,0.8,0.3,1.2h-2.5c0-0.4-0.1-0.7-0.4-0.9c-0.2-0.2-0.6-0.4-1.1-0.4
				c-0.4,0-0.8,0.1-1,0.3c-0.2,0.2-0.4,0.4-0.4,0.7c0,0.1,0,0.3,0.1,0.4c0.1,0.1,0.2,0.2,0.3,0.3c0.1,0.1,0.3,0.2,0.5,0.3
				c0.2,0.1,0.5,0.1,0.8,0.2c0.5,0.1,1,0.2,1.4,0.4c0.4,0.1,0.8,0.3,1.1,0.6c0.3,0.2,0.6,0.5,0.8,0.8c0.2,0.3,0.3,0.7,0.3,1.2
				c0,0.4-0.1,0.8-0.3,1.2c-0.2,0.4-0.5,0.7-0.8,0.9c-0.3,0.3-0.8,0.5-1.3,0.6c-0.5,0.1-1,0.2-1.7,0.2c-0.7,0-1.3-0.1-1.8-0.3
				c-0.5-0.2-0.9-0.4-1.3-0.7c-0.3-0.3-0.6-0.6-0.8-1c-0.2-0.4-0.3-0.8-0.3-1.2h2.4c0,0.2,0.1,0.5,0.2,0.6s0.2,0.3,0.4,0.4
				c0.2,0.1,0.3,0.2,0.6,0.2c0.2,0.1,0.4,0.1,0.7,0.1c0.5,0,0.9-0.1,1.1-0.3C127.3,45.5,127.4,45.3,127.4,45z"/>
			<path fill="#587EB8" d="M140.7,42.9c0,0.7-0.1,1.3-0.2,1.9c-0.2,0.6-0.4,1.1-0.7,1.5c-0.3,0.4-0.7,0.8-1.2,1
				c-0.5,0.2-1,0.4-1.6,0.4c-0.5,0-0.9-0.1-1.3-0.3c-0.4-0.2-0.7-0.4-1-0.7v4.5h-2.5V38.1h2.4l0.1,0.9c0.3-0.4,0.6-0.6,1-0.8
				c0.4-0.2,0.9-0.3,1.4-0.3c0.6,0,1.1,0.1,1.6,0.3c0.5,0.2,0.9,0.6,1.2,1c0.3,0.4,0.5,0.9,0.7,1.5c0.2,0.6,0.2,1.3,0.2,2V42.9z
				 M138.2,42.7c0-0.4,0-0.8-0.1-1.1c-0.1-0.3-0.2-0.6-0.3-0.9c-0.1-0.2-0.3-0.4-0.6-0.6c-0.2-0.1-0.5-0.2-0.8-0.2
				c-0.4,0-0.8,0.1-1,0.2c-0.3,0.2-0.5,0.4-0.6,0.7v3.9c0.1,0.3,0.4,0.5,0.6,0.7c0.3,0.2,0.6,0.3,1,0.3c0.3,0,0.6-0.1,0.8-0.2
				c0.2-0.1,0.4-0.3,0.6-0.6s0.2-0.6,0.3-0.9c0.1-0.3,0.1-0.7,0.1-1.1V42.7z"/>
			<path fill="#587EB8" d="M148.5,47.6c-0.1-0.2-0.2-0.5-0.3-0.9c-0.3,0.3-0.6,0.5-1,0.7c-0.4,0.2-0.9,0.3-1.4,0.3
				c-0.5,0-0.9-0.1-1.3-0.2c-0.4-0.1-0.7-0.3-1-0.6c-0.3-0.3-0.5-0.6-0.7-0.9c-0.2-0.3-0.2-0.7-0.2-1.1c0-0.5,0.1-0.9,0.3-1.3
				c0.2-0.4,0.5-0.7,0.8-1c0.4-0.3,0.8-0.5,1.4-0.6c0.5-0.1,1.2-0.2,1.9-0.2h1.1v-0.5c0-0.4-0.1-0.8-0.3-1.1
				c-0.2-0.3-0.6-0.4-1.1-0.4c-0.4,0-0.8,0.1-1,0.3c-0.2,0.2-0.4,0.5-0.4,0.8h-2.5c0-0.4,0.1-0.8,0.3-1.2c0.2-0.4,0.5-0.7,0.8-1
				c0.4-0.3,0.8-0.5,1.3-0.7c0.5-0.2,1.1-0.2,1.7-0.2c0.6,0,1.1,0.1,1.5,0.2c0.5,0.1,0.9,0.4,1.2,0.6c0.3,0.3,0.6,0.6,0.8,1
				c0.2,0.4,0.3,0.9,0.3,1.5v4c0,0.3,0,0.5,0,0.7c0,0.2,0,0.4,0.1,0.6c0,0.2,0.1,0.3,0.1,0.5c0,0.1,0.1,0.3,0.2,0.4v0.2H148.5z
				 M146.4,45.8c0.2,0,0.4,0,0.6-0.1c0.2-0.1,0.4-0.1,0.5-0.2c0.1-0.1,0.3-0.2,0.4-0.3c0.1-0.1,0.2-0.2,0.3-0.3v-1.6h-1
				c-0.3,0-0.6,0-0.9,0.1c-0.2,0.1-0.4,0.2-0.6,0.3c-0.2,0.1-0.3,0.3-0.4,0.5c-0.1,0.2-0.1,0.4-0.1,0.6c0,0.3,0.1,0.6,0.3,0.8
				C145.7,45.7,146,45.8,146.4,45.8z"/>
			<path fill="#587EB8" d="M157.2,45.7c0.2,0,0.4,0,0.6-0.1c0.2-0.1,0.4-0.2,0.5-0.3c0.1-0.1,0.3-0.3,0.3-0.4
				c0.1-0.2,0.1-0.4,0.1-0.6h2.4c0,0.5-0.1,1-0.3,1.4c-0.2,0.4-0.5,0.8-0.8,1.1c-0.4,0.3-0.8,0.5-1.2,0.7c-0.5,0.2-1,0.3-1.5,0.3
				c-0.7,0-1.4-0.1-1.9-0.4c-0.6-0.2-1-0.6-1.4-1c-0.4-0.4-0.6-0.9-0.8-1.5c-0.2-0.6-0.3-1.2-0.3-1.9v-0.2c0-0.7,0.1-1.3,0.3-1.9
				c0.2-0.6,0.5-1.1,0.8-1.5c0.4-0.4,0.8-0.8,1.4-1c0.5-0.2,1.2-0.4,1.9-0.4c0.6,0,1.1,0.1,1.6,0.3c0.5,0.2,0.9,0.4,1.2,0.7
				c0.3,0.3,0.6,0.7,0.8,1.2c0.2,0.5,0.3,1,0.3,1.5h-2.4c0-0.2,0-0.4-0.1-0.6c-0.1-0.2-0.2-0.4-0.3-0.5c-0.1-0.2-0.3-0.3-0.5-0.4
				c-0.2-0.1-0.4-0.1-0.7-0.1c-0.4,0-0.7,0.1-0.9,0.2c-0.2,0.2-0.4,0.4-0.5,0.6c-0.1,0.3-0.2,0.6-0.3,0.9c0,0.3-0.1,0.7-0.1,1V43
				c0,0.4,0,0.7,0.1,1c0,0.3,0.1,0.6,0.3,0.9c0.1,0.3,0.3,0.5,0.5,0.6C156.5,45.6,156.8,45.7,157.2,45.7z"/>
			<path fill="#587EB8" d="M167.7,47.8c-0.7,0-1.4-0.1-2-0.4c-0.6-0.2-1.1-0.6-1.5-1c-0.4-0.4-0.7-0.9-0.9-1.5
				c-0.2-0.6-0.3-1.2-0.3-1.8v-0.3c0-0.7,0.1-1.4,0.3-2c0.2-0.6,0.5-1.1,0.9-1.6c0.4-0.4,0.9-0.8,1.4-1c0.5-0.2,1.2-0.4,1.8-0.4
				c0.7,0,1.3,0.1,1.8,0.3c0.5,0.2,1,0.5,1.3,1c0.4,0.4,0.6,0.9,0.8,1.5s0.3,1.2,0.3,1.9v1.1h-6.1c0,0.3,0.1,0.6,0.3,0.8
				c0.1,0.3,0.3,0.5,0.5,0.6c0.2,0.2,0.4,0.3,0.7,0.4c0.3,0.1,0.6,0.2,0.9,0.2c0.5,0,0.9-0.1,1.3-0.3c0.4-0.2,0.7-0.4,1-0.8l1.3,1.4
				c-0.2,0.2-0.3,0.4-0.6,0.6c-0.2,0.2-0.5,0.4-0.8,0.6c-0.3,0.2-0.7,0.3-1.1,0.4C168.6,47.7,168.2,47.8,167.7,47.8z M167.4,39.9
				c-0.3,0-0.5,0-0.7,0.1c-0.2,0.1-0.4,0.2-0.5,0.4s-0.3,0.4-0.4,0.6c-0.1,0.2-0.2,0.5-0.2,0.8h3.5v-0.2c0-0.3,0-0.5-0.1-0.7
				c-0.1-0.2-0.2-0.4-0.3-0.6c-0.1-0.2-0.3-0.3-0.5-0.4C168,40,167.7,39.9,167.4,39.9z"/>
			<path fill="#587EB8" d="M182.1,47.6h-2.8V33.8h2.8V47.6z"/>
			<path fill="#587EB8" d="M187.6,38.1l0.1,1.1c0.3-0.4,0.7-0.7,1.2-0.9c0.5-0.2,1-0.3,1.6-0.3c0.5,0,0.9,0.1,1.2,0.2
				c0.4,0.1,0.7,0.3,1,0.6c0.3,0.3,0.5,0.7,0.6,1.1c0.1,0.5,0.2,1,0.2,1.7v6.1h-2.5v-6.1c0-0.3,0-0.6-0.1-0.8
				c-0.1-0.2-0.2-0.4-0.3-0.5c-0.1-0.1-0.3-0.2-0.5-0.3c-0.2,0-0.4-0.1-0.7-0.1c-0.4,0-0.7,0.1-1,0.2c-0.3,0.2-0.5,0.4-0.6,0.7v6.7
				h-2.5v-9.5H187.6z"/>
			<path fill="#587EB8" d="M195.6,42.8c0-0.7,0.1-1.4,0.3-2s0.4-1.1,0.7-1.5c0.3-0.4,0.7-0.8,1.2-1c0.5-0.2,1-0.4,1.6-0.4
				c0.5,0,0.9,0.1,1.3,0.3c0.4,0.2,0.7,0.4,1,0.8v-4.9h2.6v13.5h-2.3l-0.1-1c-0.3,0.4-0.6,0.7-1,0.9c-0.4,0.2-0.9,0.3-1.4,0.3
				c-0.6,0-1.1-0.1-1.6-0.4c-0.5-0.2-0.8-0.6-1.2-1c-0.3-0.4-0.6-0.9-0.7-1.5s-0.3-1.2-0.3-1.9V42.8z M198.2,42.9
				c0,0.4,0,0.7,0.1,1.1c0.1,0.3,0.2,0.6,0.3,0.9c0.1,0.2,0.3,0.4,0.6,0.6c0.2,0.1,0.5,0.2,0.8,0.2c0.4,0,0.8-0.1,1-0.3
				c0.3-0.2,0.5-0.4,0.6-0.7v-3.8c-0.2-0.3-0.4-0.6-0.6-0.7c-0.3-0.2-0.6-0.3-1-0.3c-0.3,0-0.6,0.1-0.9,0.2
				c-0.2,0.1-0.4,0.3-0.6,0.6s-0.2,0.5-0.3,0.9c-0.1,0.3-0.1,0.7-0.1,1.1V42.9z"/>
			<path fill="#587EB8" d="M212.5,46.6c-0.3,0.4-0.7,0.6-1.1,0.8c-0.4,0.2-0.9,0.3-1.5,0.3c-0.5,0-0.9-0.1-1.3-0.2
				c-0.4-0.1-0.7-0.3-1-0.6c-0.3-0.3-0.5-0.7-0.6-1.1c-0.2-0.4-0.2-1-0.2-1.6v-6.2h2.5v6.2c0,0.3,0,0.5,0.1,0.7
				c0.1,0.2,0.2,0.3,0.3,0.5c0.1,0.1,0.3,0.2,0.4,0.3c0.2,0.1,0.3,0.1,0.5,0.1c0.5,0,0.8-0.1,1.1-0.2c0.3-0.2,0.5-0.4,0.7-0.7v-6.7
				h2.6v9.5h-2.4L212.5,46.6z"/>
			<path fill="#587EB8" d="M222.7,45c0-0.1,0-0.3-0.1-0.4c-0.1-0.1-0.2-0.2-0.3-0.3c-0.1-0.1-0.3-0.2-0.6-0.3
				c-0.3-0.1-0.6-0.2-1-0.3c-0.5-0.1-0.9-0.2-1.4-0.4c-0.4-0.2-0.8-0.4-1.1-0.6c-0.3-0.2-0.5-0.5-0.7-0.8c-0.2-0.3-0.3-0.7-0.3-1.1
				c0-0.4,0.1-0.8,0.3-1.1c0.2-0.4,0.4-0.7,0.7-0.9c0.3-0.3,0.7-0.5,1.2-0.6c0.5-0.2,1-0.2,1.6-0.2c0.6,0,1.2,0.1,1.7,0.2
				c0.5,0.2,0.9,0.4,1.3,0.6c0.3,0.3,0.6,0.6,0.8,1c0.2,0.4,0.3,0.8,0.3,1.2h-2.5c0-0.4-0.1-0.7-0.4-0.9c-0.2-0.2-0.6-0.4-1.1-0.4
				c-0.4,0-0.8,0.1-1,0.3c-0.2,0.2-0.4,0.4-0.4,0.7c0,0.1,0,0.3,0.1,0.4c0.1,0.1,0.2,0.2,0.3,0.3c0.1,0.1,0.3,0.2,0.5,0.3
				c0.2,0.1,0.5,0.1,0.8,0.2c0.5,0.1,1,0.2,1.4,0.4c0.4,0.1,0.8,0.3,1.1,0.6c0.3,0.2,0.6,0.5,0.8,0.8c0.2,0.3,0.3,0.7,0.3,1.2
				c0,0.4-0.1,0.8-0.3,1.2c-0.2,0.4-0.5,0.7-0.8,0.9c-0.4,0.3-0.8,0.5-1.3,0.6c-0.5,0.1-1,0.2-1.7,0.2c-0.7,0-1.3-0.1-1.8-0.3
				c-0.5-0.2-0.9-0.4-1.3-0.7c-0.3-0.3-0.6-0.6-0.8-1c-0.2-0.4-0.3-0.8-0.3-1.2h2.4c0,0.2,0.1,0.5,0.2,0.6c0.1,0.2,0.2,0.3,0.4,0.4
				c0.2,0.1,0.3,0.2,0.6,0.2c0.2,0.1,0.4,0.1,0.7,0.1c0.5,0,0.9-0.1,1.1-0.3C222.6,45.5,222.7,45.3,222.7,45z"/>
			<path fill="#587EB8" d="M230.5,35.7v2.3h1.6v1.9h-1.6v4.8c0,0.2,0,0.4,0.1,0.5c0,0.1,0.1,0.2,0.2,0.3c0.1,0.1,0.2,0.1,0.3,0.1
				c0.1,0,0.3,0,0.4,0c0.2,0,0.3,0,0.4,0c0.1,0,0.2,0,0.3,0v1.9c-0.2,0.1-0.4,0.1-0.7,0.2c-0.2,0-0.5,0.1-0.8,0.1
				c-0.4,0-0.8-0.1-1.1-0.2c-0.3-0.1-0.6-0.3-0.9-0.5c-0.2-0.2-0.4-0.5-0.6-0.9c-0.1-0.4-0.2-0.8-0.2-1.3v-5h-1.4v-1.9h1.4v-2.3
				H230.5z"/>
			<path fill="#587EB8" d="M239.6,40.4c-0.1,0-0.3,0-0.5,0c-0.2,0-0.3,0-0.5,0c-0.5,0-0.9,0.1-1.2,0.3c-0.3,0.2-0.5,0.4-0.7,0.7v6.2
				h-2.5v-9.5h2.4l0.1,1.1c0.2-0.4,0.5-0.7,0.9-1c0.4-0.2,0.8-0.3,1.2-0.3c0.1,0,0.3,0,0.4,0c0.2,0,0.3,0,0.4,0.1L239.6,40.4z"/>
			<path fill="#587EB8" d="M241.4,35.6c0-0.4,0.1-0.7,0.4-0.9c0.3-0.2,0.6-0.4,1-0.4c0.2,0,0.4,0,0.6,0.1c0.2,0.1,0.3,0.2,0.4,0.3
				c0.1,0.1,0.2,0.3,0.3,0.4c0.1,0.2,0.1,0.3,0.1,0.5c0,0.2,0,0.4-0.1,0.5c-0.1,0.2-0.2,0.3-0.3,0.4c-0.1,0.1-0.3,0.2-0.4,0.3
				c-0.2,0.1-0.4,0.1-0.6,0.1s-0.4,0-0.6-0.1c-0.2-0.1-0.3-0.2-0.4-0.3c-0.1-0.1-0.2-0.3-0.3-0.4C241.5,36,241.4,35.8,241.4,35.6z
				 M244.1,47.6h-2.6v-9.5h2.6V47.6z"/>
			<path fill="#587EB8" d="M251.3,47.8c-0.7,0-1.4-0.1-2-0.4c-0.6-0.2-1.1-0.6-1.5-1c-0.4-0.4-0.7-0.9-0.9-1.5
				c-0.2-0.6-0.3-1.2-0.3-1.8v-0.3c0-0.7,0.1-1.4,0.3-2s0.5-1.1,0.9-1.6c0.4-0.4,0.9-0.8,1.4-1c0.5-0.2,1.2-0.4,1.8-0.4
				c0.7,0,1.3,0.1,1.8,0.3c0.5,0.2,1,0.5,1.3,1c0.4,0.4,0.6,0.9,0.8,1.5c0.2,0.6,0.3,1.2,0.3,1.9v1.1h-6.1c0,0.3,0.1,0.6,0.3,0.8
				c0.1,0.3,0.3,0.5,0.5,0.6c0.2,0.2,0.4,0.3,0.7,0.4c0.3,0.1,0.6,0.2,0.9,0.2c0.5,0,0.9-0.1,1.3-0.3c0.4-0.2,0.7-0.4,1-0.8L255,46
				c-0.2,0.2-0.3,0.4-0.6,0.6c-0.2,0.2-0.5,0.4-0.8,0.6c-0.3,0.2-0.7,0.3-1.1,0.4C252.2,47.7,251.7,47.8,251.3,47.8z M251,39.9
				c-0.3,0-0.5,0-0.7,0.1c-0.2,0.1-0.4,0.2-0.5,0.4c-0.2,0.2-0.3,0.4-0.4,0.6c-0.1,0.2-0.2,0.5-0.2,0.8h3.5v-0.2
				c0-0.3,0-0.5-0.1-0.7c-0.1-0.2-0.2-0.4-0.3-0.6c-0.1-0.2-0.3-0.3-0.5-0.4C251.5,40,251.3,39.9,251,39.9z"/>
			<path fill="#587EB8" d="M262.4,45c0-0.1,0-0.3-0.1-0.4c-0.1-0.1-0.2-0.2-0.3-0.3c-0.1-0.1-0.3-0.2-0.6-0.3
				c-0.3-0.1-0.6-0.2-1-0.3c-0.5-0.1-0.9-0.2-1.4-0.4c-0.4-0.2-0.8-0.4-1.1-0.6c-0.3-0.2-0.5-0.5-0.7-0.8c-0.2-0.3-0.3-0.7-0.3-1.1
				c0-0.4,0.1-0.8,0.3-1.1c0.2-0.4,0.4-0.7,0.7-0.9c0.3-0.3,0.7-0.5,1.2-0.6c0.5-0.2,1-0.2,1.6-0.2c0.6,0,1.2,0.1,1.7,0.2
				c0.5,0.2,0.9,0.4,1.3,0.6c0.3,0.3,0.6,0.6,0.8,1c0.2,0.4,0.3,0.8,0.3,1.2h-2.5c0-0.4-0.1-0.7-0.4-0.9c-0.2-0.2-0.6-0.4-1.1-0.4
				c-0.4,0-0.8,0.1-1,0.3c-0.2,0.2-0.4,0.4-0.4,0.7c0,0.1,0,0.3,0.1,0.4c0.1,0.1,0.2,0.2,0.3,0.3c0.1,0.1,0.3,0.2,0.5,0.3
				s0.5,0.1,0.8,0.2c0.5,0.1,1,0.2,1.4,0.4c0.4,0.1,0.8,0.3,1.1,0.6c0.3,0.2,0.6,0.5,0.8,0.8c0.2,0.3,0.3,0.7,0.3,1.2
				c0,0.4-0.1,0.8-0.3,1.2c-0.2,0.4-0.5,0.7-0.8,0.9c-0.4,0.3-0.8,0.5-1.3,0.6c-0.5,0.1-1,0.2-1.7,0.2c-0.7,0-1.3-0.1-1.8-0.3
				c-0.5-0.2-0.9-0.4-1.3-0.7c-0.3-0.3-0.6-0.6-0.8-1c-0.2-0.4-0.3-0.8-0.3-1.2h2.4c0,0.2,0.1,0.5,0.2,0.6c0.1,0.2,0.2,0.3,0.4,0.4
				c0.2,0.1,0.3,0.2,0.6,0.2c0.2,0.1,0.4,0.1,0.7,0.1c0.5,0,0.9-0.1,1.1-0.3C262.3,45.5,262.4,45.3,262.4,45z"/>
			<path fill="#587EB8" d="M280.3,44.8h-5l-0.9,2.8h-3l5.1-13.7h2.6l5.1,13.7h-3L280.3,44.8z M276.1,42.5h3.4l-1.7-5.1L276.1,42.5z"
				/>
			<path fill="#587EB8" d="M291.3,45c0-0.1,0-0.3-0.1-0.4c-0.1-0.1-0.2-0.2-0.3-0.3c-0.1-0.1-0.3-0.2-0.6-0.3
				c-0.3-0.1-0.6-0.2-1-0.3c-0.5-0.1-0.9-0.2-1.4-0.4c-0.4-0.2-0.8-0.4-1.1-0.6c-0.3-0.2-0.5-0.5-0.7-0.8c-0.2-0.3-0.3-0.7-0.3-1.1
				c0-0.4,0.1-0.8,0.3-1.1c0.2-0.4,0.4-0.7,0.7-0.9c0.3-0.3,0.7-0.5,1.2-0.6c0.5-0.2,1-0.2,1.6-0.2c0.6,0,1.2,0.1,1.7,0.2
				c0.5,0.2,0.9,0.4,1.3,0.6c0.3,0.3,0.6,0.6,0.8,1c0.2,0.4,0.3,0.8,0.3,1.2h-2.5c0-0.4-0.1-0.7-0.4-0.9c-0.2-0.2-0.6-0.4-1.1-0.4
				c-0.4,0-0.8,0.1-1,0.3c-0.2,0.2-0.4,0.4-0.4,0.7c0,0.1,0,0.3,0.1,0.4c0.1,0.1,0.2,0.2,0.3,0.3c0.1,0.1,0.3,0.2,0.5,0.3
				s0.5,0.1,0.8,0.2c0.5,0.1,1,0.2,1.4,0.4c0.4,0.1,0.8,0.3,1.1,0.6s0.6,0.5,0.8,0.8c0.2,0.3,0.3,0.7,0.3,1.2c0,0.4-0.1,0.8-0.3,1.2
				c-0.2,0.4-0.5,0.7-0.8,0.9c-0.4,0.3-0.8,0.5-1.3,0.6c-0.5,0.1-1,0.2-1.7,0.2c-0.7,0-1.3-0.1-1.8-0.3c-0.5-0.2-0.9-0.4-1.3-0.7
				s-0.6-0.6-0.8-1c-0.2-0.4-0.3-0.8-0.3-1.2h2.4c0,0.2,0.1,0.5,0.2,0.6c0.1,0.2,0.2,0.3,0.4,0.4c0.2,0.1,0.3,0.2,0.6,0.2
				c0.2,0.1,0.4,0.1,0.7,0.1c0.5,0,0.9-0.1,1.1-0.3C291.1,45.5,291.3,45.3,291.3,45z"/>
			<path fill="#587EB8" d="M301.2,45c0-0.1,0-0.3-0.1-0.4c-0.1-0.1-0.2-0.2-0.3-0.3c-0.1-0.1-0.3-0.2-0.6-0.3
				c-0.3-0.1-0.6-0.2-1-0.3c-0.5-0.1-0.9-0.2-1.4-0.4c-0.4-0.2-0.8-0.4-1.1-0.6c-0.3-0.2-0.5-0.5-0.7-0.8c-0.2-0.3-0.3-0.7-0.3-1.1
				c0-0.4,0.1-0.8,0.3-1.1c0.2-0.4,0.4-0.7,0.7-0.9s0.7-0.5,1.2-0.6c0.5-0.2,1-0.2,1.6-0.2c0.6,0,1.2,0.1,1.7,0.2
				c0.5,0.2,0.9,0.4,1.3,0.6c0.3,0.3,0.6,0.6,0.8,1c0.2,0.4,0.3,0.8,0.3,1.2h-2.5c0-0.4-0.1-0.7-0.4-0.9c-0.2-0.2-0.6-0.4-1.1-0.4
				c-0.4,0-0.8,0.1-1,0.3c-0.2,0.2-0.4,0.4-0.4,0.7c0,0.1,0,0.3,0.1,0.4c0.1,0.1,0.2,0.2,0.3,0.3c0.1,0.1,0.3,0.2,0.5,0.3
				c0.2,0.1,0.5,0.1,0.8,0.2c0.5,0.1,1,0.2,1.4,0.4c0.4,0.1,0.8,0.3,1.1,0.6s0.6,0.5,0.8,0.8c0.2,0.3,0.3,0.7,0.3,1.2
				c0,0.4-0.1,0.8-0.3,1.2c-0.2,0.4-0.5,0.7-0.8,0.9c-0.4,0.3-0.8,0.5-1.3,0.6c-0.5,0.1-1,0.2-1.7,0.2c-0.7,0-1.3-0.1-1.8-0.3
				c-0.5-0.2-0.9-0.4-1.3-0.7s-0.6-0.6-0.8-1c-0.2-0.4-0.3-0.8-0.3-1.2h2.4c0,0.2,0.1,0.5,0.2,0.6c0.1,0.2,0.2,0.3,0.4,0.4
				c0.2,0.1,0.3,0.2,0.6,0.2c0.2,0.1,0.4,0.1,0.7,0.1c0.5,0,0.9-0.1,1.1-0.3C301.1,45.5,301.2,45.3,301.2,45z"/>
			<path fill="#587EB8" d="M305.6,42.7c0-0.7,0.1-1.3,0.3-1.9c0.2-0.6,0.5-1.1,0.9-1.5c0.4-0.4,0.9-0.8,1.4-1
				c0.6-0.2,1.2-0.4,1.9-0.4c0.7,0,1.4,0.1,1.9,0.4s1,0.6,1.4,1c0.4,0.4,0.7,0.9,0.9,1.5c0.2,0.6,0.3,1.2,0.3,1.9v0.2
				c0,0.7-0.1,1.3-0.3,1.9c-0.2,0.6-0.5,1.1-0.9,1.5c-0.4,0.4-0.9,0.8-1.4,1c-0.6,0.2-1.2,0.4-1.9,0.4c-0.7,0-1.4-0.1-1.9-0.4
				c-0.6-0.2-1-0.6-1.4-1c-0.4-0.4-0.7-0.9-0.9-1.5c-0.2-0.6-0.3-1.2-0.3-1.9V42.7z M308.1,42.9c0,0.4,0,0.8,0.1,1.1
				c0.1,0.3,0.2,0.6,0.3,0.9c0.2,0.2,0.4,0.4,0.6,0.6c0.2,0.1,0.6,0.2,0.9,0.2c0.4,0,0.7-0.1,0.9-0.2c0.2-0.1,0.5-0.3,0.6-0.6
				c0.2-0.2,0.3-0.5,0.3-0.9c0.1-0.3,0.1-0.7,0.1-1.1v-0.2c0-0.4,0-0.7-0.1-1.1c-0.1-0.3-0.2-0.6-0.3-0.9c-0.2-0.3-0.4-0.5-0.6-0.6
				c-0.3-0.2-0.6-0.2-0.9-0.2c-0.4,0-0.7,0.1-0.9,0.2c-0.2,0.1-0.5,0.4-0.6,0.6c-0.2,0.3-0.3,0.6-0.3,0.9s-0.1,0.7-0.1,1.1V42.9z"/>
			<path fill="#587EB8" d="M320.8,45.7c0.2,0,0.4,0,0.6-0.1c0.2-0.1,0.4-0.2,0.5-0.3c0.1-0.1,0.3-0.3,0.3-0.4
				c0.1-0.2,0.1-0.4,0.1-0.6h2.4c0,0.5-0.1,1-0.3,1.4c-0.2,0.4-0.5,0.8-0.8,1.1c-0.4,0.3-0.8,0.5-1.2,0.7c-0.5,0.2-1,0.3-1.5,0.3
				c-0.7,0-1.4-0.1-1.9-0.4c-0.6-0.2-1-0.6-1.4-1c-0.4-0.4-0.6-0.9-0.8-1.5c-0.2-0.6-0.3-1.2-0.3-1.9v-0.2c0-0.7,0.1-1.3,0.3-1.9
				c0.2-0.6,0.5-1.1,0.8-1.5c0.4-0.4,0.8-0.8,1.4-1c0.5-0.2,1.2-0.4,1.9-0.4c0.6,0,1.1,0.1,1.6,0.3c0.5,0.2,0.9,0.4,1.2,0.7
				c0.3,0.3,0.6,0.7,0.8,1.2c0.2,0.5,0.3,1,0.3,1.5h-2.4c0-0.2,0-0.4-0.1-0.6c-0.1-0.2-0.2-0.4-0.3-0.5c-0.1-0.2-0.3-0.3-0.5-0.4
				c-0.2-0.1-0.4-0.1-0.7-0.1c-0.4,0-0.7,0.1-0.9,0.2c-0.2,0.2-0.4,0.4-0.6,0.6c-0.1,0.3-0.2,0.6-0.3,0.9c0,0.3-0.1,0.7-0.1,1V43
				c0,0.4,0,0.7,0.1,1c0,0.3,0.1,0.6,0.3,0.9c0.1,0.3,0.3,0.5,0.6,0.6C320.1,45.6,320.4,45.7,320.8,45.7z"/>
			<path fill="#587EB8" d="M326.8,35.6c0-0.4,0.1-0.7,0.4-0.9c0.3-0.2,0.6-0.4,1-0.4c0.2,0,0.4,0,0.6,0.1c0.2,0.1,0.3,0.2,0.4,0.3
				c0.1,0.1,0.2,0.3,0.3,0.4c0.1,0.2,0.1,0.3,0.1,0.5c0,0.2,0,0.4-0.1,0.5c-0.1,0.2-0.2,0.3-0.3,0.4c-0.1,0.1-0.3,0.2-0.4,0.3
				c-0.2,0.1-0.4,0.1-0.6,0.1s-0.4,0-0.6-0.1c-0.2-0.1-0.3-0.2-0.4-0.3c-0.1-0.1-0.2-0.3-0.3-0.4C326.9,36,326.8,35.8,326.8,35.6z
				 M329.5,47.6H327v-9.5h2.6V47.6z"/>
			<path fill="#587EB8" d="M337.8,47.6c-0.1-0.2-0.2-0.5-0.3-0.9c-0.3,0.3-0.6,0.5-1,0.7c-0.4,0.2-0.9,0.3-1.4,0.3
				c-0.5,0-0.9-0.1-1.3-0.2c-0.4-0.1-0.7-0.3-1-0.6c-0.3-0.3-0.5-0.6-0.7-0.9c-0.2-0.3-0.2-0.7-0.2-1.1c0-0.5,0.1-0.9,0.3-1.3
				c0.2-0.4,0.5-0.7,0.8-1c0.4-0.3,0.8-0.5,1.4-0.6c0.5-0.1,1.2-0.2,1.9-0.2h1.1v-0.5c0-0.4-0.1-0.8-0.3-1.1
				c-0.2-0.3-0.6-0.4-1.1-0.4c-0.4,0-0.8,0.1-1,0.3c-0.2,0.2-0.4,0.5-0.4,0.8h-2.5c0-0.4,0.1-0.8,0.3-1.2c0.2-0.4,0.5-0.7,0.8-1
				c0.4-0.3,0.8-0.5,1.3-0.7c0.5-0.2,1.1-0.2,1.7-0.2c0.6,0,1.1,0.1,1.5,0.2c0.5,0.1,0.9,0.4,1.2,0.6c0.3,0.3,0.6,0.6,0.8,1
				c0.2,0.4,0.3,0.9,0.3,1.5v4c0,0.3,0,0.5,0,0.7c0,0.2,0,0.4,0.1,0.6c0,0.2,0.1,0.3,0.1,0.5c0,0.1,0.1,0.3,0.2,0.4v0.2H337.8z
				 M335.7,45.8c0.2,0,0.4,0,0.6-0.1c0.2-0.1,0.4-0.1,0.5-0.2c0.1-0.1,0.3-0.2,0.4-0.3c0.1-0.1,0.2-0.2,0.3-0.3v-1.6h-1
				c-0.3,0-0.6,0-0.9,0.1c-0.2,0.1-0.4,0.2-0.6,0.3c-0.2,0.1-0.3,0.3-0.4,0.5c-0.1,0.2-0.1,0.4-0.1,0.6c0,0.3,0.1,0.6,0.3,0.8
				S335.3,45.8,335.7,45.8z"/>
			<path fill="#587EB8" d="M345.7,35.7v2.3h1.6v1.9h-1.6v4.8c0,0.2,0,0.4,0.1,0.5c0,0.1,0.1,0.2,0.2,0.3c0.1,0.1,0.2,0.1,0.3,0.1
				c0.1,0,0.3,0,0.4,0c0.2,0,0.3,0,0.4,0c0.1,0,0.2,0,0.3,0v1.9c-0.2,0.1-0.4,0.1-0.7,0.2c-0.2,0-0.5,0.1-0.8,0.1
				c-0.4,0-0.8-0.1-1.1-0.2c-0.3-0.1-0.6-0.3-0.9-0.5c-0.2-0.2-0.4-0.5-0.6-0.9c-0.1-0.4-0.2-0.8-0.2-1.3v-5h-1.4v-1.9h1.4v-2.3
				H345.7z"/>
			<path fill="#587EB8" d="M349.3,35.6c0-0.4,0.1-0.7,0.4-0.9c0.3-0.2,0.6-0.4,1-0.4c0.2,0,0.4,0,0.6,0.1c0.2,0.1,0.3,0.2,0.4,0.3
				c0.1,0.1,0.2,0.3,0.3,0.4c0.1,0.2,0.1,0.3,0.1,0.5c0,0.2,0,0.4-0.1,0.5c-0.1,0.2-0.2,0.3-0.3,0.4c-0.1,0.1-0.3,0.2-0.4,0.3
				c-0.2,0.1-0.4,0.1-0.6,0.1s-0.4,0-0.6-0.1c-0.2-0.1-0.3-0.2-0.4-0.3c-0.1-0.1-0.2-0.3-0.3-0.4C349.4,36,349.3,35.8,349.3,35.6z
				 M352,47.6h-2.6v-9.5h2.6V47.6z"/>
			<path fill="#587EB8" d="M354.4,42.7c0-0.7,0.1-1.3,0.3-1.9c0.2-0.6,0.5-1.1,0.9-1.5c0.4-0.4,0.9-0.8,1.4-1
				c0.6-0.2,1.2-0.4,1.9-0.4c0.7,0,1.4,0.1,1.9,0.4c0.6,0.2,1,0.6,1.4,1c0.4,0.4,0.7,0.9,0.9,1.5c0.2,0.6,0.3,1.2,0.3,1.9v0.2
				c0,0.7-0.1,1.3-0.3,1.9c-0.2,0.6-0.5,1.1-0.9,1.5c-0.4,0.4-0.9,0.8-1.4,1c-0.6,0.2-1.2,0.4-1.9,0.4c-0.7,0-1.4-0.1-1.9-0.4
				c-0.6-0.2-1-0.6-1.4-1c-0.4-0.4-0.7-0.9-0.9-1.5c-0.2-0.6-0.3-1.2-0.3-1.9V42.7z M356.9,42.9c0,0.4,0,0.8,0.1,1.1
				c0.1,0.3,0.2,0.6,0.3,0.9c0.2,0.2,0.4,0.4,0.6,0.6c0.2,0.1,0.6,0.2,0.9,0.2c0.4,0,0.7-0.1,0.9-0.2c0.2-0.1,0.5-0.3,0.6-0.6
				c0.2-0.2,0.3-0.5,0.3-0.9c0.1-0.3,0.1-0.7,0.1-1.1v-0.2c0-0.4,0-0.7-0.1-1.1c-0.1-0.3-0.2-0.6-0.3-0.9c-0.2-0.3-0.4-0.5-0.6-0.6
				c-0.3-0.2-0.6-0.2-0.9-0.2c-0.4,0-0.7,0.1-0.9,0.2c-0.2,0.1-0.5,0.4-0.6,0.6c-0.2,0.3-0.3,0.6-0.3,0.9s-0.1,0.7-0.1,1.1V42.9z"/>
			<path fill="#587EB8" d="M368,38.1l0.1,1.1c0.3-0.4,0.7-0.7,1.2-0.9c0.5-0.2,1-0.3,1.5-0.3c0.5,0,0.9,0.1,1.2,0.2
				c0.4,0.1,0.7,0.3,1,0.6c0.3,0.3,0.5,0.7,0.6,1.1c0.1,0.5,0.2,1,0.2,1.7v6.1h-2.5v-6.1c0-0.3,0-0.6-0.1-0.8
				c-0.1-0.2-0.2-0.4-0.3-0.5c-0.1-0.1-0.3-0.2-0.5-0.3c-0.2,0-0.4-0.1-0.7-0.1c-0.4,0-0.7,0.1-1,0.2c-0.3,0.2-0.5,0.4-0.6,0.7v6.7
				h-2.5v-9.5H368z"/>
			<path fill="#587EB8" d="M381.5,45c0-0.1,0-0.3-0.1-0.4c-0.1-0.1-0.2-0.2-0.3-0.3c-0.1-0.1-0.3-0.2-0.6-0.3
				c-0.3-0.1-0.6-0.2-1-0.3c-0.5-0.1-0.9-0.2-1.4-0.4c-0.4-0.2-0.8-0.4-1.1-0.6c-0.3-0.2-0.5-0.5-0.7-0.8c-0.2-0.3-0.3-0.7-0.3-1.1
				c0-0.4,0.1-0.8,0.3-1.1c0.2-0.4,0.4-0.7,0.7-0.9c0.3-0.3,0.7-0.5,1.2-0.6c0.5-0.2,1-0.2,1.6-0.2c0.6,0,1.2,0.1,1.7,0.2
				c0.5,0.2,0.9,0.4,1.3,0.6c0.3,0.3,0.6,0.6,0.8,1c0.2,0.4,0.3,0.8,0.3,1.2h-2.5c0-0.4-0.1-0.7-0.4-0.9c-0.2-0.2-0.6-0.4-1.1-0.4
				c-0.4,0-0.8,0.1-1,0.3c-0.2,0.2-0.4,0.4-0.4,0.7c0,0.1,0,0.3,0.1,0.4c0.1,0.1,0.2,0.2,0.3,0.3c0.1,0.1,0.3,0.2,0.5,0.3
				s0.5,0.1,0.8,0.2c0.5,0.1,1,0.2,1.4,0.4c0.4,0.1,0.8,0.3,1.1,0.6s0.6,0.5,0.8,0.8c0.2,0.3,0.3,0.7,0.3,1.2c0,0.4-0.1,0.8-0.3,1.2
				c-0.2,0.4-0.5,0.7-0.8,0.9c-0.4,0.3-0.8,0.5-1.3,0.6c-0.5,0.1-1,0.2-1.7,0.2c-0.7,0-1.3-0.1-1.8-0.3c-0.5-0.2-0.9-0.4-1.3-0.7
				s-0.6-0.6-0.8-1c-0.2-0.4-0.3-0.8-0.3-1.2h2.4c0,0.2,0.1,0.5,0.2,0.6c0.1,0.2,0.2,0.3,0.4,0.4c0.2,0.1,0.3,0.2,0.6,0.2
				c0.2,0.1,0.4,0.1,0.7,0.1c0.5,0,0.9-0.1,1.1-0.3C381.4,45.5,381.5,45.3,381.5,45z"/>
		</g>
	</g>
</g>
</svg>
