<?xml version="1.0" encoding="utf-8"?>
<!-- Generator: Adobe Illustrator 18.1.1, SVG Export Plug-In . SVG Version: 6.00 Build 0)  -->
<svg version="1.1" id="Layer_1" xmlns="http://www.w3.org/2000/svg" xmlns:xlink="http://www.w3.org/1999/xlink" x="0px" y="0px"
	 viewBox="0 0 551.8 95" enable-background="new 0 0 551.8 95" xml:space="preserve">
<g id="Logo_Title">
	<g>
		<polygon fill="#FFFFFF" points="18.6,33.8 51,93.2 51,76.7 		"/>
		<polygon fill="#FFFFFF" points="87.2,25.3 51.1,75.5 51,64.8 		"/>
		<path fill="none" stroke="#2B3188" stroke-linecap="round" stroke-miterlimit="10" d="M51.8,26"/>
		<g>
			<path fill="#587EB8" d="M34.5,21.2l-8.3-5.4l1.1-1.7l8.3,5.4L34.5,21.2z"/>
			<path fill="#587EB8" d="M38.7,11.6l1.9-0.7c0.4,1,0.6,2,0.3,2.8c-0.2,0.8-0.7,1.6-1.6,2.3c-1,0.8-2.2,1.1-3.4,1
				c-1.2-0.2-2.3-0.9-3.3-2.1c-1-1.3-1.5-2.6-1.4-3.8c0.1-1.2,0.7-2.3,1.8-3.2c0.9-0.8,1.9-1.1,3-1c0.6,0.1,1.3,0.3,1.9,0.8
				l-1.3,1.6c-0.4-0.3-0.9-0.5-1.3-0.5c-0.5,0-0.9,0.2-1.3,0.5c-0.6,0.5-0.9,1-0.9,1.7c0,0.7,0.3,1.5,1.1,2.4c0.8,1,1.5,1.5,2.2,1.7
				c0.7,0.1,1.3,0,1.9-0.5c0.4-0.3,0.7-0.7,0.8-1.3C39.1,12.8,39,12.2,38.7,11.6z"/>
			<path fill="#587EB8" d="M48.7,8.1l2,0.2c-0.1,1.1-0.4,2-1,2.7c-0.6,0.7-1.4,1.1-2.4,1.3c-1.3,0.3-2.4,0-3.5-0.7
				c-1-0.7-1.7-1.8-2-3.4c-0.3-1.6-0.2-3,0.5-4c0.6-1.1,1.7-1.7,3-2c1.2-0.2,2.2-0.1,3.1,0.5c0.5,0.3,1,0.9,1.4,1.6L48,5.1
				c-0.2-0.5-0.5-0.8-1-1c-0.4-0.2-0.9-0.3-1.4-0.2C44.9,4.1,44.3,4.4,44,5c-0.3,0.6-0.4,1.5-0.2,2.6c0.3,1.2,0.7,2.1,1.2,2.5
				c0.5,0.4,1.2,0.6,1.9,0.4c0.5-0.1,0.9-0.4,1.2-0.8C48.5,9.4,48.7,8.8,48.7,8.1z"/>
			<path fill="#587EB8" d="M60.7,13.6l-2.1-0.6l-0.3-2.4l-3.8-1l-1.4,2l-2.1-0.5l6.3-8.6l2,0.5L60.7,13.6z M58.1,8.9L57.8,5
				l-2.2,3.2L58.1,8.9z"/>
			<path fill="#587EB8" d="M60.7,14.3l5.5-8.3l1.7,1.1l-5.5,8.3L60.7,14.3z"/>
			<path fill="#587EB8" d="M69.1,22.9l-1.3-1.7l1.2-2.1L66.5,16l-2.3,0.8l-1.3-1.7L73.1,12l1.3,1.7L69.1,22.9z M69.9,17.6l2-3.3
				l-3.7,1.2L69.9,17.6z"/>
		</g>
		<g>
			<path fill="#FFFFFF" stroke="#587EB8" stroke-miterlimit="10" d="M70.1,33.6c0,10.6-8.7,19.3-19.2,19.3S32,44.4,32,33.8
				s8.6-19.1,19.1-19.1S70.1,23.1,70.1,33.6z"/>
			<path fill="none" stroke="#587EB8" stroke-miterlimit="10" d="M59.5,33.8c0,10.6-4.2,19.1-9.1,19.1s-8.9-8.6-8.9-19.1
				s4-19.1,8.9-19.1S59.5,23.3,59.5,33.8z"/>
			<path fill="#587EB8" d="M50.3,53.1l0-37.7c0-0.4,0.4-0.6,0.5-0.6c0.1,0,0.4,0.1,0.4,0.6l-0.2,37.8"/>
			<path fill="#587EB8" d="M32,34.5l37.6,0c0.4,0,0.5,0.4,0.5,0.4s-0.2,0.3-0.6,0.3H32V34.5z"/>
			<path fill="none" stroke="#587EB8" stroke-linecap="round" stroke-miterlimit="10" d="M39.5,48.9c2.3-2.5,6.9-3.7,11.7-3.7
				c4.9,0,8.8,1.3,11,3.8"/>
			<path fill="none" stroke="#587EB8" stroke-linecap="round" stroke-miterlimit="10" d="M62.3,19.1c-2.3,2.5-6.9,3.7-11.7,3.7
				c-4.9,0-8.8-1.3-11-3.8"/>
		</g>
		<g>
			<polyline fill="#587EB8" points="51,63.6 5.1,13 51,74.9 			"/>
			<polyline fill="#587EB8" points="51,75.7 51,74.4 87.2,25.2 51,64.8 50.9,63.5 96.8,13.3 			"/>
			<g>
				<polyline fill="none" points="51,91.8 12,23.5 51,75.6 				"/>
				<path fill="#FFFFFF" d="M91.3,21.3"/>
				<path fill="#587EB8" d="M51,91L18.6,33.9l31.1,41.3l1.2,1.7 M51,74.4L5.1,13L51,93.3"/>
			</g>
			<g>
				<polyline fill="none" points="50.9,90.2 89.9,22 51,74.1 				"/>
				<path fill="#FFFFFF" d="M10.7,19.8"/>
				<path fill="#587EB8" d="M50.9,93.3L96.8,13L51,74.4"/>
			</g>
		</g>
	</g>
	<g>
		<g>
			<path fill="#587EB8" d="M120.3,37.5h-2.8V21.2h2.8V37.5z"/>
			<path fill="#587EB8" d="M126.7,26.4l0.1,1.3c0.4-0.5,0.9-0.8,1.4-1.1c0.5-0.3,1.2-0.4,1.8-0.4c0.5,0,1,0.1,1.5,0.2
				c0.4,0.1,0.8,0.4,1.1,0.7c0.3,0.3,0.5,0.8,0.7,1.3c0.2,0.5,0.3,1.2,0.3,1.9v7.2H131v-7.2c0-0.4,0-0.7-0.1-1s-0.2-0.5-0.4-0.6
				c-0.2-0.2-0.4-0.3-0.6-0.4s-0.5-0.1-0.8-0.1c-0.5,0-1,0.1-1.3,0.4s-0.7,0.6-0.9,1v7.9h-2.5V26.4H126.7z"/>
			<path fill="#587EB8" d="M140,23.7v2.7h2v1.9h-2v6.2c0,0.3,0,0.5,0.1,0.6c0.1,0.2,0.1,0.3,0.2,0.4c0.1,0.1,0.2,0.1,0.4,0.2
				s0.3,0,0.5,0s0.3,0,0.5,0c0.2,0,0.3,0,0.4-0.1v1.9c-0.2,0.1-0.4,0.1-0.7,0.2c-0.3,0.1-0.6,0.1-1,0.1c-0.4,0-0.8-0.1-1.1-0.2
				c-0.4-0.1-0.7-0.3-0.9-0.5s-0.5-0.6-0.6-1s-0.2-0.9-0.2-1.5v-6.4h-1.8v-1.9h1.8v-2.7H140z"/>
			<path fill="#587EB8" d="M149.5,37.7c-0.8,0-1.6-0.1-2.2-0.4c-0.7-0.3-1.2-0.7-1.7-1.1c-0.5-0.5-0.8-1-1.1-1.7
				c-0.2-0.7-0.4-1.4-0.4-2.1v-0.4c0-0.9,0.1-1.7,0.4-2.4s0.6-1.3,1.1-1.8c0.5-0.5,1-0.9,1.6-1.2s1.3-0.4,2-0.4
				c0.8,0,1.5,0.1,2.1,0.4s1.1,0.7,1.5,1.1c0.4,0.5,0.7,1.1,0.9,1.7c0.2,0.7,0.3,1.4,0.3,2.2v1.1h-7.3c0,0.4,0.1,0.8,0.3,1.2
				s0.3,0.7,0.6,0.9c0.3,0.3,0.6,0.5,0.9,0.6s0.7,0.2,1.2,0.2c0.6,0,1.2-0.1,1.6-0.4s0.9-0.6,1.2-1l1.3,1.3
				c-0.2,0.3-0.4,0.5-0.7,0.8c-0.3,0.3-0.6,0.5-0.9,0.7c-0.4,0.2-0.8,0.4-1.2,0.5C150.6,37.7,150.1,37.7,149.5,37.7z M149.2,28.2
				c-0.7,0-1.2,0.2-1.7,0.7c-0.4,0.5-0.7,1.1-0.8,2h4.8v-0.2c0-0.3-0.1-0.6-0.2-1c-0.1-0.3-0.2-0.6-0.4-0.8
				c-0.2-0.2-0.4-0.4-0.7-0.6C150,28.2,149.6,28.2,149.2,28.2z"/>
			<path fill="#587EB8" d="M162.5,28.7c-0.2,0-0.3,0-0.5-0.1s-0.3,0-0.5,0c-0.6,0-1.1,0.1-1.5,0.4c-0.4,0.2-0.7,0.6-0.8,1v7.6h-2.5
				V26.4h2.4l0.1,1.2c0.3-0.5,0.6-0.8,1-1.1c0.4-0.3,0.9-0.4,1.5-0.4c0.1,0,0.3,0,0.5,0s0.3,0.1,0.4,0.1L162.5,28.7z"/>
			<path fill="#587EB8" d="M167.2,26.4l0.1,1.3c0.4-0.5,0.9-0.8,1.4-1.1c0.5-0.3,1.2-0.4,1.8-0.4c0.5,0,1,0.1,1.5,0.2
				c0.4,0.1,0.8,0.4,1.1,0.7c0.3,0.3,0.5,0.8,0.7,1.3c0.2,0.5,0.3,1.2,0.3,1.9v7.2h-2.5v-7.2c0-0.4,0-0.7-0.1-1s-0.2-0.5-0.4-0.6
				c-0.2-0.2-0.4-0.3-0.6-0.4s-0.5-0.1-0.8-0.1c-0.5,0-1,0.1-1.3,0.4s-0.7,0.6-0.9,1v7.9h-2.5V26.4H167.2z"/>
			<path fill="#587EB8" d="M184,37.5c-0.1-0.1-0.1-0.3-0.2-0.5c0-0.2-0.1-0.4-0.1-0.6c-0.2,0.2-0.3,0.3-0.6,0.5
				c-0.2,0.2-0.4,0.3-0.7,0.4c-0.2,0.1-0.5,0.2-0.8,0.3c-0.3,0.1-0.6,0.1-0.9,0.1c-0.6,0-1.1-0.1-1.5-0.3s-0.9-0.4-1.2-0.7
				c-0.3-0.3-0.6-0.6-0.8-1.1c-0.2-0.4-0.3-0.8-0.3-1.3c0-0.6,0.1-1.1,0.3-1.6s0.6-0.8,1-1.2c0.4-0.3,1-0.5,1.6-0.7
				c0.6-0.2,1.3-0.2,2.1-0.2h1.6V30c0-0.6-0.2-1-0.5-1.4c-0.3-0.3-0.8-0.5-1.5-0.5c-0.3,0-0.6,0-0.8,0.1s-0.4,0.2-0.6,0.3
				c-0.2,0.1-0.3,0.3-0.4,0.5c-0.1,0.2-0.1,0.4-0.1,0.6h-2.5c0-0.4,0.1-0.9,0.3-1.3c0.2-0.4,0.5-0.8,0.9-1.1
				c0.4-0.3,0.9-0.6,1.4-0.8c0.6-0.2,1.2-0.3,1.9-0.3c0.6,0,1.2,0.1,1.7,0.2c0.5,0.2,1,0.4,1.4,0.7c0.4,0.3,0.7,0.7,0.9,1.2
				s0.3,1,0.3,1.7v4.9c0,1,0.1,1.8,0.4,2.4v0.2H184z M181.2,35.7c0.3,0,0.6,0,0.8-0.1c0.3-0.1,0.5-0.2,0.7-0.3
				c0.2-0.1,0.4-0.3,0.5-0.4s0.3-0.3,0.4-0.5v-2.1h-1.3c-0.9,0-1.6,0.2-2.1,0.5c-0.5,0.3-0.7,0.8-0.7,1.4c0,0.2,0,0.4,0.1,0.6
				c0.1,0.2,0.2,0.4,0.3,0.5c0.2,0.1,0.3,0.3,0.6,0.3C180.7,35.7,180.9,35.7,181.2,35.7z"/>
			<path fill="#587EB8" d="M192.6,23.7v2.7h2v1.9h-2v6.2c0,0.3,0,0.5,0.1,0.6c0.1,0.2,0.1,0.3,0.2,0.4c0.1,0.1,0.2,0.1,0.4,0.2
				s0.3,0,0.5,0s0.3,0,0.5,0c0.2,0,0.3,0,0.4-0.1v1.9c-0.2,0.1-0.4,0.1-0.7,0.2c-0.3,0.1-0.6,0.1-1,0.1c-0.4,0-0.8-0.1-1.1-0.2
				c-0.4-0.1-0.7-0.3-0.9-0.5s-0.5-0.6-0.6-1s-0.2-0.9-0.2-1.5v-6.4h-1.8v-1.9h1.8v-2.7H192.6z"/>
			<path fill="#587EB8" d="M197.3,23.5c0-0.4,0.1-0.7,0.4-1c0.2-0.3,0.6-0.4,1-0.4s0.8,0.1,1,0.4c0.2,0.3,0.4,0.6,0.4,1
				c0,0.4-0.1,0.7-0.4,0.9c-0.2,0.3-0.6,0.4-1,0.4s-0.8-0.1-1-0.4C197.4,24.2,197.3,23.9,197.3,23.5z M199.9,37.5h-2.5V26.4h2.5
				V37.5z"/>
			<path fill="#587EB8" d="M202.9,31.8c0-0.8,0.1-1.6,0.4-2.2c0.2-0.7,0.6-1.3,1-1.8c0.4-0.5,1-0.9,1.6-1.2c0.6-0.3,1.4-0.4,2.2-0.4
				c0.8,0,1.5,0.1,2.2,0.4c0.6,0.3,1.2,0.7,1.6,1.2s0.8,1.1,1,1.8c0.2,0.7,0.4,1.4,0.4,2.2v0.2c0,0.8-0.1,1.6-0.4,2.3
				c-0.2,0.7-0.6,1.3-1,1.8s-1,0.9-1.6,1.2c-0.6,0.3-1.4,0.4-2.2,0.4c-0.8,0-1.5-0.1-2.2-0.4c-0.6-0.3-1.2-0.7-1.6-1.2
				c-0.4-0.5-0.8-1.1-1-1.8s-0.4-1.4-0.4-2.3V31.8z M205.4,32.1c0,0.5,0.1,1,0.2,1.4c0.1,0.4,0.3,0.8,0.5,1.2
				c0.2,0.3,0.5,0.6,0.8,0.8c0.3,0.2,0.7,0.3,1.2,0.3c0.5,0,0.9-0.1,1.2-0.3c0.3-0.2,0.6-0.5,0.8-0.8c0.2-0.3,0.4-0.7,0.5-1.2
				c0.1-0.4,0.2-0.9,0.2-1.4v-0.2c0-0.5-0.1-1-0.2-1.4c-0.1-0.4-0.3-0.8-0.5-1.2s-0.5-0.6-0.8-0.8c-0.3-0.2-0.7-0.3-1.2-0.3
				c-0.5,0-0.9,0.1-1.2,0.3c-0.3,0.2-0.6,0.5-0.8,0.8s-0.4,0.7-0.5,1.2s-0.2,0.9-0.2,1.4V32.1z"/>
			<path fill="#587EB8" d="M218.5,26.4l0.1,1.3c0.4-0.5,0.9-0.8,1.4-1.1c0.5-0.3,1.2-0.4,1.8-0.4c0.5,0,1,0.1,1.5,0.2
				c0.4,0.1,0.8,0.4,1.1,0.7c0.3,0.3,0.5,0.8,0.7,1.3c0.2,0.5,0.3,1.2,0.3,1.9v7.2h-2.5v-7.2c0-0.4,0-0.7-0.1-1s-0.2-0.5-0.4-0.6
				c-0.2-0.2-0.4-0.3-0.6-0.4s-0.5-0.1-0.8-0.1c-0.5,0-1,0.1-1.3,0.4s-0.7,0.6-0.9,1v7.9h-2.5V26.4H218.5z"/>
			<path fill="#587EB8" d="M235.3,37.5c-0.1-0.1-0.1-0.3-0.2-0.5c0-0.2-0.1-0.4-0.1-0.6c-0.2,0.2-0.3,0.3-0.6,0.5
				c-0.2,0.2-0.4,0.3-0.7,0.4c-0.2,0.1-0.5,0.2-0.8,0.3c-0.3,0.1-0.6,0.1-0.9,0.1c-0.6,0-1.1-0.1-1.5-0.3s-0.9-0.4-1.2-0.7
				c-0.3-0.3-0.6-0.6-0.8-1.1c-0.2-0.4-0.3-0.8-0.3-1.3c0-0.6,0.1-1.1,0.3-1.6s0.6-0.8,1-1.2c0.4-0.3,1-0.5,1.6-0.7
				c0.6-0.2,1.3-0.2,2.1-0.2h1.6V30c0-0.6-0.2-1-0.5-1.4c-0.3-0.3-0.8-0.5-1.5-0.5c-0.3,0-0.6,0-0.8,0.1s-0.4,0.2-0.6,0.3
				c-0.2,0.1-0.3,0.3-0.4,0.5c-0.1,0.2-0.1,0.4-0.1,0.6h-2.5c0-0.4,0.1-0.9,0.3-1.3c0.2-0.4,0.5-0.8,0.9-1.1
				c0.4-0.3,0.9-0.6,1.4-0.8c0.6-0.2,1.2-0.3,1.9-0.3c0.6,0,1.2,0.1,1.7,0.2c0.5,0.2,1,0.4,1.4,0.7c0.4,0.3,0.7,0.7,0.9,1.2
				s0.3,1,0.3,1.7v4.9c0,1,0.1,1.8,0.4,2.4v0.2H235.3z M232.6,35.7c0.3,0,0.6,0,0.8-0.1c0.3-0.1,0.5-0.2,0.7-0.3
				c0.2-0.1,0.4-0.3,0.5-0.4s0.3-0.3,0.4-0.5v-2.1h-1.3c-0.9,0-1.6,0.2-2.1,0.5c-0.5,0.3-0.7,0.8-0.7,1.4c0,0.2,0,0.4,0.1,0.6
				c0.1,0.2,0.2,0.4,0.3,0.5c0.2,0.1,0.3,0.3,0.6,0.3C232,35.7,232.3,35.7,232.6,35.7z"/>
			<path fill="#587EB8" d="M243.5,37.5H241V21.7h2.5V37.5z"/>
			<path fill="#587EB8" d="M265.8,32.2c-0.1,0.8-0.3,1.5-0.6,2.2c-0.3,0.7-0.7,1.3-1.2,1.8c-0.5,0.5-1.2,0.9-1.9,1.2
				c-0.8,0.3-1.6,0.4-2.6,0.4c-1,0-1.9-0.2-2.7-0.5c-0.8-0.4-1.5-0.9-2.1-1.5c-0.6-0.7-1-1.5-1.3-2.4c-0.3-0.9-0.5-2-0.5-3.2v-1.3
				c0-1.2,0.2-2.2,0.5-3.2c0.3-1,0.8-1.8,1.3-2.4s1.3-1.2,2.1-1.6c0.8-0.4,1.7-0.5,2.8-0.5c1,0,1.8,0.1,2.6,0.4
				c0.7,0.3,1.4,0.7,1.9,1.2c0.5,0.5,0.9,1.1,1.2,1.8c0.3,0.7,0.5,1.4,0.6,2.2H263c-0.1-0.5-0.2-1-0.3-1.4c-0.1-0.4-0.4-0.8-0.6-1
				s-0.6-0.5-1-0.7c-0.4-0.1-0.9-0.2-1.5-0.2c-0.6,0-1.2,0.1-1.7,0.4c-0.5,0.2-0.9,0.6-1.2,1.1c-0.3,0.5-0.6,1-0.7,1.7
				c-0.2,0.7-0.2,1.4-0.2,2.3V30c0,0.8,0.1,1.6,0.2,2.2c0.1,0.7,0.4,1.2,0.7,1.7s0.7,0.8,1.2,1.1c0.5,0.3,1,0.4,1.7,0.4
				c0.6,0,1.1-0.1,1.5-0.2s0.8-0.4,1-0.6c0.3-0.3,0.5-0.6,0.6-1s0.3-0.9,0.3-1.4H265.8z"/>
			<path fill="#587EB8" d="M268.4,31.8c0-0.8,0.1-1.6,0.4-2.2c0.2-0.7,0.6-1.3,1-1.8c0.4-0.5,1-0.9,1.6-1.2c0.6-0.3,1.4-0.4,2.2-0.4
				c0.8,0,1.5,0.1,2.2,0.4c0.6,0.3,1.2,0.7,1.6,1.2s0.8,1.1,1,1.8c0.2,0.7,0.4,1.4,0.4,2.2v0.2c0,0.8-0.1,1.6-0.4,2.3
				c-0.2,0.7-0.6,1.3-1,1.8s-1,0.9-1.6,1.2c-0.6,0.3-1.4,0.4-2.2,0.4c-0.8,0-1.5-0.1-2.2-0.4c-0.6-0.3-1.2-0.7-1.6-1.2
				c-0.4-0.5-0.8-1.1-1-1.8s-0.4-1.4-0.4-2.3V31.8z M270.9,32.1c0,0.5,0.1,1,0.2,1.4c0.1,0.4,0.3,0.8,0.5,1.2
				c0.2,0.3,0.5,0.6,0.8,0.8c0.3,0.2,0.7,0.3,1.2,0.3c0.5,0,0.9-0.1,1.2-0.3c0.3-0.2,0.6-0.5,0.8-0.8c0.2-0.3,0.4-0.7,0.5-1.2
				c0.1-0.4,0.2-0.9,0.2-1.4v-0.2c0-0.5-0.1-1-0.2-1.4c-0.1-0.4-0.3-0.8-0.5-1.2s-0.5-0.6-0.8-0.8c-0.3-0.2-0.7-0.3-1.2-0.3
				c-0.5,0-0.9,0.1-1.2,0.3c-0.3,0.2-0.6,0.5-0.8,0.8s-0.4,0.7-0.5,1.2s-0.2,0.9-0.2,1.4V32.1z"/>
			<path fill="#587EB8" d="M281.1,31.8c0-0.8,0.1-1.6,0.4-2.2c0.2-0.7,0.6-1.3,1-1.8c0.4-0.5,1-0.9,1.6-1.2c0.6-0.3,1.4-0.4,2.2-0.4
				c0.8,0,1.5,0.1,2.2,0.4c0.6,0.3,1.2,0.7,1.6,1.2s0.8,1.1,1,1.8c0.2,0.7,0.3,1.4,0.3,2.2v0.2c0,0.8-0.1,1.6-0.3,2.3
				c-0.2,0.7-0.6,1.3-1,1.8s-1,0.9-1.6,1.2c-0.6,0.3-1.4,0.4-2.2,0.4c-0.8,0-1.5-0.1-2.2-0.4c-0.6-0.3-1.2-0.7-1.6-1.2
				c-0.4-0.5-0.8-1.1-1-1.8s-0.4-1.4-0.4-2.3V31.8z M283.6,32.1c0,0.5,0.1,1,0.2,1.4c0.1,0.4,0.3,0.8,0.5,1.2
				c0.2,0.3,0.5,0.6,0.8,0.8c0.3,0.2,0.7,0.3,1.2,0.3c0.5,0,0.9-0.1,1.2-0.3c0.3-0.2,0.6-0.5,0.8-0.8c0.2-0.3,0.4-0.7,0.5-1.2
				c0.1-0.4,0.2-0.9,0.2-1.4v-0.2c0-0.5-0.1-1-0.2-1.4c-0.1-0.4-0.3-0.8-0.5-1.2s-0.5-0.6-0.8-0.8c-0.3-0.2-0.7-0.3-1.2-0.3
				c-0.5,0-0.9,0.1-1.2,0.3c-0.3,0.2-0.6,0.5-0.8,0.8s-0.4,0.7-0.5,1.2s-0.2,0.9-0.2,1.4V32.1z"/>
			<path fill="#587EB8" d="M300.2,28.7c-0.2,0-0.3,0-0.5-0.1s-0.3,0-0.5,0c-0.6,0-1.1,0.1-1.5,0.4c-0.4,0.2-0.7,0.6-0.8,1v7.6h-2.5
				V26.4h2.4l0.1,1.2c0.3-0.5,0.6-0.8,1-1.1c0.4-0.3,0.9-0.4,1.5-0.4c0.1,0,0.3,0,0.5,0s0.3,0.1,0.4,0.1L300.2,28.7z"/>
			<path fill="#587EB8" d="M301.9,31.9c0-0.8,0.1-1.6,0.3-2.3c0.2-0.7,0.5-1.3,0.9-1.8s0.8-0.9,1.4-1.2c0.5-0.3,1.2-0.4,1.8-0.4
				c0.6,0,1.2,0.1,1.6,0.3c0.5,0.2,0.9,0.5,1.2,0.9v-5.7h2.5v15.8h-2.3l-0.1-1.2c-0.4,0.4-0.8,0.8-1.3,1c-0.5,0.2-1.1,0.4-1.7,0.4
				c-0.7,0-1.3-0.1-1.8-0.4c-0.5-0.3-1-0.7-1.4-1.2c-0.4-0.5-0.7-1.1-0.9-1.8c-0.2-0.7-0.3-1.4-0.3-2.2V31.9z M304.4,32.1
				c0,0.5,0,1,0.1,1.4c0.1,0.4,0.2,0.8,0.4,1.1c0.2,0.3,0.5,0.6,0.8,0.8c0.3,0.2,0.7,0.3,1.2,0.3c0.6,0,1-0.1,1.4-0.4
				c0.4-0.3,0.6-0.6,0.9-1v-4.8c-0.2-0.4-0.5-0.7-0.9-1c-0.4-0.2-0.8-0.4-1.4-0.4c-0.5,0-0.8,0.1-1.2,0.3c-0.3,0.2-0.6,0.5-0.8,0.8
				c-0.2,0.3-0.4,0.7-0.4,1.2c-0.1,0.4-0.1,0.9-0.1,1.4V32.1z"/>
			<path fill="#587EB8" d="M315,23.5c0-0.4,0.1-0.7,0.4-1c0.2-0.3,0.6-0.4,1-0.4s0.8,0.1,1,0.4c0.2,0.3,0.4,0.6,0.4,1
				c0,0.4-0.1,0.7-0.4,0.9c-0.2,0.3-0.6,0.4-1,0.4s-0.8-0.1-1-0.4C315.1,24.2,315,23.9,315,23.5z M317.7,37.5h-2.5V26.4h2.5V37.5z"
				/>
			<path fill="#587EB8" d="M323.5,26.4l0.1,1.3c0.4-0.5,0.9-0.8,1.4-1.1c0.5-0.3,1.2-0.4,1.8-0.4c0.5,0,1,0.1,1.5,0.2
				c0.4,0.1,0.8,0.4,1.1,0.7c0.3,0.3,0.5,0.8,0.7,1.3s0.3,1.2,0.3,1.9v7.2h-2.5v-7.2c0-0.4,0-0.7-0.1-1s-0.2-0.5-0.4-0.6
				c-0.2-0.2-0.4-0.3-0.6-0.4c-0.2-0.1-0.5-0.1-0.8-0.1c-0.5,0-1,0.1-1.3,0.4s-0.7,0.6-0.9,1v7.9h-2.5V26.4H323.5z"/>
			<path fill="#587EB8" d="M340.3,37.5c-0.1-0.1-0.1-0.3-0.2-0.5c0-0.2-0.1-0.4-0.1-0.6c-0.2,0.2-0.3,0.3-0.6,0.5
				c-0.2,0.2-0.4,0.3-0.7,0.4c-0.2,0.1-0.5,0.2-0.8,0.3c-0.3,0.1-0.6,0.1-0.9,0.1c-0.6,0-1.1-0.1-1.5-0.3s-0.9-0.4-1.2-0.7
				c-0.3-0.3-0.6-0.6-0.8-1.1c-0.2-0.4-0.3-0.8-0.3-1.3c0-0.6,0.1-1.1,0.3-1.6s0.6-0.8,1-1.2c0.4-0.3,1-0.5,1.6-0.7
				c0.6-0.2,1.3-0.2,2.1-0.2h1.6V30c0-0.6-0.2-1-0.5-1.4c-0.3-0.3-0.8-0.5-1.5-0.5c-0.3,0-0.6,0-0.8,0.1s-0.4,0.2-0.6,0.3
				c-0.2,0.1-0.3,0.3-0.4,0.5c-0.1,0.2-0.1,0.4-0.1,0.6h-2.5c0-0.4,0.1-0.9,0.3-1.3c0.2-0.4,0.5-0.8,0.9-1.1
				c0.4-0.3,0.9-0.6,1.4-0.8c0.6-0.2,1.2-0.3,1.9-0.3c0.6,0,1.2,0.1,1.7,0.2c0.5,0.2,1,0.4,1.4,0.7c0.4,0.3,0.7,0.7,0.9,1.2
				s0.3,1,0.3,1.7v4.9c0,1,0.1,1.8,0.4,2.4v0.2H340.3z M337.5,35.7c0.3,0,0.6,0,0.8-0.1c0.3-0.1,0.5-0.2,0.7-0.3
				c0.2-0.1,0.4-0.3,0.5-0.4c0.2-0.2,0.3-0.3,0.4-0.5v-2.1h-1.3c-0.9,0-1.6,0.2-2.1,0.5c-0.5,0.3-0.7,0.8-0.7,1.4
				c0,0.2,0,0.4,0.1,0.6c0.1,0.2,0.2,0.4,0.3,0.5c0.2,0.1,0.3,0.3,0.6,0.3C337,35.7,337.2,35.7,337.5,35.7z"/>
			<path fill="#587EB8" d="M348.9,23.7v2.7h2v1.9h-2v6.2c0,0.3,0,0.5,0.1,0.6c0.1,0.2,0.1,0.3,0.2,0.4c0.1,0.1,0.2,0.1,0.4,0.2
				s0.3,0,0.5,0s0.3,0,0.5,0s0.3,0,0.4-0.1v1.9c-0.2,0.1-0.4,0.1-0.7,0.2c-0.3,0.1-0.6,0.1-1,0.1c-0.4,0-0.8-0.1-1.1-0.2
				c-0.4-0.1-0.7-0.3-0.9-0.5c-0.3-0.2-0.5-0.6-0.6-1c-0.1-0.4-0.2-0.9-0.2-1.5v-6.4h-1.8v-1.9h1.8v-2.7H348.9z"/>
			<path fill="#587EB8" d="M353.6,23.5c0-0.4,0.1-0.7,0.4-1c0.2-0.3,0.6-0.4,1-0.4s0.8,0.1,1,0.4c0.2,0.3,0.4,0.6,0.4,1
				c0,0.4-0.1,0.7-0.4,0.9c-0.2,0.3-0.6,0.4-1,0.4s-0.8-0.1-1-0.4C353.7,24.2,353.6,23.9,353.6,23.5z M356.2,37.5h-2.5V26.4h2.5
				V37.5z"/>
			<path fill="#587EB8" d="M362,26.4l0.1,1.3c0.4-0.5,0.9-0.8,1.4-1.1c0.5-0.3,1.2-0.4,1.8-0.4c0.5,0,1,0.1,1.5,0.2
				c0.4,0.1,0.8,0.4,1.1,0.7c0.3,0.3,0.5,0.8,0.7,1.3s0.3,1.2,0.3,1.9v7.2h-2.5v-7.2c0-0.4,0-0.7-0.1-1s-0.2-0.5-0.4-0.6
				c-0.2-0.2-0.4-0.3-0.6-0.4c-0.2-0.1-0.5-0.1-0.8-0.1c-0.5,0-1,0.1-1.3,0.4s-0.7,0.6-0.9,1v7.9h-2.5V26.4H362z"/>
			<path fill="#587EB8" d="M371.8,31.9c0-0.8,0.1-1.6,0.3-2.3c0.2-0.7,0.5-1.3,0.9-1.8c0.4-0.5,0.9-0.9,1.4-1.2
				c0.5-0.3,1.2-0.4,1.9-0.4c0.7,0,1.3,0.1,1.7,0.3c0.5,0.2,0.9,0.6,1.3,1l0.1-1.1h2.3v10.8c0,0.7-0.1,1.4-0.4,2
				c-0.2,0.6-0.6,1.1-1,1.5c-0.4,0.4-1,0.7-1.6,0.9c-0.6,0.2-1.3,0.3-2,0.3c-0.3,0-0.7,0-1-0.1c-0.4-0.1-0.8-0.2-1.1-0.3
				c-0.4-0.1-0.8-0.3-1.1-0.6c-0.4-0.2-0.6-0.5-0.9-0.9l1.2-1.5c0.4,0.5,0.9,0.8,1.3,1.1c0.5,0.2,1,0.3,1.5,0.3c0.8,0,1.5-0.2,2-0.7
				c0.5-0.4,0.7-1.1,0.7-2v-0.8c-0.4,0.4-0.8,0.7-1.2,0.9s-1,0.3-1.6,0.3c-0.7,0-1.3-0.1-1.8-0.4c-0.5-0.3-1-0.7-1.4-1.2
				c-0.4-0.5-0.7-1.1-0.9-1.8c-0.2-0.7-0.3-1.4-0.3-2.2V31.9z M374.2,32.1c0,0.5,0,1,0.1,1.4c0.1,0.4,0.3,0.8,0.5,1.1
				c0.2,0.3,0.5,0.6,0.8,0.8c0.3,0.2,0.7,0.3,1.2,0.3c0.6,0,1-0.1,1.4-0.4s0.6-0.6,0.9-0.9v-4.9c-0.2-0.4-0.5-0.7-0.9-0.9
				s-0.8-0.3-1.4-0.3c-0.5,0-0.8,0.1-1.2,0.3c-0.3,0.2-0.6,0.5-0.8,0.8c-0.2,0.3-0.4,0.7-0.5,1.2c-0.1,0.4-0.2,0.9-0.2,1.4V32.1z"/>
			<path fill="#587EB8" d="M403.7,32.2c-0.1,0.8-0.3,1.5-0.6,2.2c-0.3,0.7-0.7,1.3-1.2,1.8c-0.5,0.5-1.2,0.9-1.9,1.2
				s-1.6,0.4-2.6,0.4c-1,0-1.9-0.2-2.7-0.5s-1.5-0.9-2.1-1.5c-0.6-0.7-1-1.5-1.3-2.4c-0.3-0.9-0.5-2-0.5-3.2v-1.3
				c0-1.2,0.2-2.2,0.5-3.2c0.3-1,0.8-1.8,1.3-2.4s1.3-1.2,2.1-1.6c0.8-0.4,1.7-0.5,2.8-0.5c1,0,1.8,0.1,2.6,0.4s1.4,0.7,1.9,1.2
				c0.5,0.5,0.9,1.1,1.2,1.8c0.3,0.7,0.5,1.4,0.6,2.2h-2.8c-0.1-0.5-0.2-1-0.3-1.4c-0.1-0.4-0.4-0.8-0.6-1s-0.6-0.5-1-0.7
				c-0.4-0.1-0.9-0.2-1.5-0.2c-0.6,0-1.2,0.1-1.7,0.4c-0.5,0.2-0.9,0.6-1.2,1.1c-0.3,0.5-0.6,1-0.7,1.7c-0.2,0.7-0.2,1.4-0.2,2.3V30
				c0,0.8,0.1,1.6,0.2,2.2s0.4,1.2,0.7,1.7c0.3,0.5,0.7,0.8,1.2,1.1c0.5,0.3,1,0.4,1.7,0.4c0.6,0,1.1-0.1,1.5-0.2
				c0.4-0.1,0.8-0.4,1-0.6c0.3-0.3,0.5-0.6,0.6-1c0.2-0.4,0.3-0.9,0.3-1.4H403.7z"/>
			<path fill="#587EB8" d="M406.3,31.8c0-0.8,0.1-1.6,0.4-2.2c0.2-0.7,0.6-1.3,1-1.8s1-0.9,1.6-1.2c0.6-0.3,1.4-0.4,2.2-0.4
				c0.8,0,1.5,0.1,2.2,0.4c0.6,0.3,1.2,0.7,1.6,1.2s0.8,1.1,1,1.8c0.2,0.7,0.4,1.4,0.4,2.2v0.2c0,0.8-0.1,1.6-0.4,2.3
				s-0.6,1.3-1,1.8s-1,0.9-1.6,1.2s-1.4,0.4-2.2,0.4c-0.8,0-1.5-0.1-2.2-0.4s-1.2-0.7-1.6-1.2s-0.8-1.1-1-1.8
				c-0.2-0.7-0.4-1.4-0.4-2.3V31.8z M408.8,32.1c0,0.5,0.1,1,0.2,1.4c0.1,0.4,0.3,0.8,0.5,1.2c0.2,0.3,0.5,0.6,0.8,0.8
				c0.3,0.2,0.7,0.3,1.2,0.3c0.5,0,0.9-0.1,1.2-0.3c0.3-0.2,0.6-0.5,0.8-0.8c0.2-0.3,0.4-0.7,0.5-1.2c0.1-0.4,0.2-0.9,0.2-1.4v-0.2
				c0-0.5-0.1-1-0.2-1.4s-0.3-0.8-0.5-1.2c-0.2-0.3-0.5-0.6-0.8-0.8c-0.3-0.2-0.7-0.3-1.2-0.3s-0.9,0.1-1.2,0.3
				c-0.3,0.2-0.6,0.5-0.8,0.8s-0.4,0.7-0.5,1.2c-0.1,0.4-0.2,0.9-0.2,1.4V32.1z"/>
			<path fill="#587EB8" d="M426.3,36.4c-0.4,0.4-0.8,0.7-1.3,1s-1.1,0.3-1.8,0.3c-0.5,0-1-0.1-1.5-0.2c-0.4-0.2-0.8-0.4-1.2-0.7
				c-0.3-0.3-0.6-0.8-0.8-1.3c-0.2-0.5-0.3-1.2-0.3-1.9v-7.2h2.5v7.2c0,0.4,0,0.7,0.1,1c0.1,0.3,0.2,0.5,0.4,0.6s0.3,0.3,0.6,0.3
				c0.2,0.1,0.4,0.1,0.7,0.1c0.6,0,1.2-0.1,1.6-0.4c0.4-0.2,0.7-0.6,0.9-1v-8h2.5v11.1h-2.4L426.3,36.4z"/>
			<path fill="#587EB8" d="M434.3,26.4l0.1,1.3c0.4-0.5,0.9-0.8,1.4-1.1c0.5-0.3,1.2-0.4,1.8-0.4c0.5,0,1,0.1,1.5,0.2
				c0.4,0.1,0.8,0.4,1.1,0.7c0.3,0.3,0.5,0.8,0.7,1.3s0.3,1.2,0.3,1.9v7.2h-2.5v-7.2c0-0.4,0-0.7-0.1-1s-0.2-0.5-0.4-0.6
				c-0.2-0.2-0.4-0.3-0.6-0.4c-0.2-0.1-0.5-0.1-0.8-0.1c-0.5,0-1,0.1-1.3,0.4s-0.7,0.6-0.9,1v7.9H432V26.4H434.3z"/>
			<path fill="#587EB8" d="M449.1,35.7c0.3,0,0.6,0,0.8-0.1c0.3-0.1,0.5-0.2,0.7-0.4c0.2-0.2,0.4-0.4,0.5-0.6
				c0.1-0.2,0.2-0.5,0.2-0.8h2.4c0,0.5-0.2,1-0.4,1.5c-0.2,0.5-0.6,0.9-1,1.2c-0.4,0.4-0.9,0.6-1.4,0.8c-0.5,0.2-1.1,0.3-1.7,0.3
				c-0.9,0-1.6-0.1-2.2-0.4s-1.2-0.7-1.6-1.2c-0.4-0.5-0.7-1.1-0.9-1.8c-0.2-0.7-0.3-1.4-0.3-2.2v-0.4c0-0.8,0.1-1.5,0.3-2.2
				c0.2-0.7,0.5-1.3,0.9-1.8c0.4-0.5,0.9-0.9,1.6-1.2c0.6-0.3,1.4-0.4,2.2-0.4c0.7,0,1.3,0.1,1.8,0.3c0.6,0.2,1,0.5,1.4,0.9
				s0.7,0.8,0.9,1.3c0.2,0.5,0.3,1.1,0.4,1.7h-2.4c0-0.3-0.1-0.6-0.2-0.8s-0.3-0.5-0.4-0.7c-0.2-0.2-0.4-0.4-0.7-0.5
				s-0.6-0.2-0.9-0.2c-0.5,0-0.9,0.1-1.3,0.3c-0.3,0.2-0.6,0.5-0.8,0.8c-0.2,0.3-0.3,0.7-0.4,1.2c-0.1,0.4-0.1,0.9-0.1,1.3v0.4
				c0,0.5,0,0.9,0.1,1.3c0.1,0.4,0.2,0.8,0.4,1.1c0.2,0.3,0.5,0.6,0.8,0.8S448.6,35.7,449.1,35.7z"/>
			<path fill="#587EB8" d="M456.3,23.5c0-0.4,0.1-0.7,0.4-1c0.2-0.3,0.6-0.4,1-0.4s0.8,0.1,1,0.4c0.2,0.3,0.4,0.6,0.4,1
				c0,0.4-0.1,0.7-0.4,0.9c-0.2,0.3-0.6,0.4-1,0.4s-0.8-0.1-1-0.4C456.4,24.2,456.3,23.9,456.3,23.5z M459,37.5h-2.5V26.4h2.5V37.5z
				"/>
			<path fill="#587EB8" d="M465.1,37.5h-2.5V21.7h2.5V37.5z"/>
			<path fill="#587EB8" d="M474.1,31.8c0-0.8,0.1-1.6,0.4-2.2c0.2-0.7,0.6-1.3,1-1.8s1-0.9,1.6-1.2c0.6-0.3,1.4-0.4,2.2-0.4
				c0.8,0,1.5,0.1,2.2,0.4c0.6,0.3,1.2,0.7,1.6,1.2s0.8,1.1,1,1.8c0.2,0.7,0.4,1.4,0.4,2.2v0.2c0,0.8-0.1,1.6-0.4,2.3
				s-0.6,1.3-1,1.8s-1,0.9-1.6,1.2s-1.4,0.4-2.2,0.4c-0.8,0-1.5-0.1-2.2-0.4s-1.2-0.7-1.6-1.2s-0.8-1.1-1-1.8
				c-0.2-0.7-0.4-1.4-0.4-2.3V31.8z M476.6,32.1c0,0.5,0.1,1,0.2,1.4c0.1,0.4,0.3,0.8,0.5,1.2c0.2,0.3,0.5,0.6,0.8,0.8
				c0.3,0.2,0.7,0.3,1.2,0.3c0.5,0,0.9-0.1,1.2-0.3c0.3-0.2,0.6-0.5,0.8-0.8c0.2-0.3,0.4-0.7,0.5-1.2c0.1-0.4,0.2-0.9,0.2-1.4v-0.2
				c0-0.5-0.1-1-0.2-1.4s-0.3-0.8-0.5-1.2c-0.2-0.3-0.5-0.6-0.8-0.8c-0.3-0.2-0.7-0.3-1.2-0.3s-0.9,0.1-1.2,0.3
				c-0.3,0.2-0.6,0.5-0.8,0.8s-0.4,0.7-0.5,1.2c-0.1,0.4-0.2,0.9-0.2,1.4V32.1z"/>
			<path fill="#587EB8" d="M488.2,37.5v-9.3h-1.7v-1.9h1.7v-1.1c0-0.6,0.1-1.2,0.3-1.6s0.4-0.9,0.8-1.2s0.7-0.6,1.2-0.7
				c0.5-0.2,1-0.3,1.6-0.3c0.2,0,0.5,0,0.7,0.1c0.2,0,0.5,0.1,0.7,0.1l-0.1,2c-0.1,0-0.3,0-0.4-0.1c-0.2,0-0.3,0-0.5,0
				c-0.6,0-1,0.2-1.3,0.5c-0.3,0.3-0.5,0.7-0.5,1.3v1.1h2.3v1.9h-2.3v9.3H488.2z"/>
		</g>
		<g>
			<path fill="#587EB8" d="M128.5,64h-7.1l-1.3,4h-4.3l7.3-19.6h3.7l7.3,19.6h-4.3L128.5,64z M122.5,60.7h4.9l-2.5-7.3L122.5,60.7z"
				/>
			<path fill="#587EB8" d="M142.9,68.3c-1.1,0-2-0.2-2.8-0.5c-0.8-0.3-1.5-0.8-2.1-1.4c-0.6-0.6-1-1.3-1.3-2.1
				c-0.3-0.8-0.5-1.7-0.5-2.6v-0.5c0-1,0.1-2,0.4-2.8c0.3-0.9,0.7-1.6,1.3-2.2c0.5-0.6,1.2-1.1,2-1.4c0.8-0.3,1.7-0.5,2.6-0.5
				c1,0,1.8,0.2,2.6,0.5c0.7,0.3,1.4,0.8,1.9,1.4c0.5,0.6,0.9,1.3,1.1,2.1c0.3,0.8,0.4,1.7,0.4,2.7v1.5h-8.6
				c0.1,0.4,0.2,0.8,0.4,1.2c0.2,0.4,0.4,0.7,0.7,0.9c0.3,0.3,0.6,0.5,1,0.6c0.4,0.1,0.8,0.2,1.3,0.2c0.7,0,1.3-0.1,1.8-0.4
				s1-0.6,1.4-1.1l1.8,2c-0.2,0.3-0.5,0.6-0.8,0.9c-0.3,0.3-0.7,0.6-1.2,0.8c-0.4,0.2-0.9,0.4-1.5,0.6
				C144.2,68.2,143.6,68.3,142.9,68.3z M142.5,57.2c-0.4,0-0.7,0.1-1,0.2c-0.3,0.1-0.6,0.3-0.8,0.6c-0.2,0.2-0.4,0.5-0.5,0.9
				c-0.1,0.3-0.2,0.7-0.3,1.1h5v-0.3c0-0.4-0.1-0.7-0.2-1c-0.1-0.3-0.2-0.6-0.4-0.8s-0.4-0.4-0.8-0.5
				C143.3,57.2,142.9,57.2,142.5,57.2z"/>
			<path fill="#587EB8" d="M159.1,57.9c-0.2,0-0.4,0-0.6-0.1c-0.2,0-0.5,0-0.7,0c-0.7,0-1.3,0.1-1.7,0.4s-0.8,0.6-1,1V68h-3.6V54.5
				h3.4l0.1,1.6c0.3-0.6,0.8-1,1.3-1.4c0.5-0.3,1.1-0.5,1.8-0.5c0.2,0,0.4,0,0.6,0s0.4,0.1,0.5,0.1L159.1,57.9z"/>
			<path fill="#587EB8" d="M160.7,61.1c0-1,0.1-1.9,0.4-2.7c0.3-0.8,0.7-1.6,1.2-2.2c0.5-0.6,1.2-1.1,2-1.4c0.8-0.4,1.7-0.5,2.7-0.5
				c1,0,1.9,0.2,2.7,0.5c0.8,0.4,1.5,0.8,2,1.4s1,1.3,1.2,2.2c0.3,0.8,0.4,1.8,0.4,2.7v0.3c0,1-0.1,1.9-0.4,2.8
				c-0.3,0.8-0.7,1.6-1.2,2.2s-1.2,1.1-2,1.4c-0.8,0.3-1.7,0.5-2.7,0.5s-1.9-0.2-2.7-0.5s-1.5-0.8-2-1.4c-0.5-0.6-1-1.3-1.2-2.2
				c-0.3-0.8-0.4-1.8-0.4-2.8V61.1z M164.4,61.4c0,0.6,0,1.1,0.2,1.6c0.1,0.5,0.3,0.9,0.5,1.3c0.2,0.4,0.5,0.6,0.9,0.8
				c0.4,0.2,0.8,0.3,1.3,0.3c0.5,0,0.9-0.1,1.3-0.3s0.6-0.5,0.9-0.8c0.2-0.4,0.4-0.8,0.5-1.3s0.2-1,0.2-1.6v-0.3
				c0-0.5-0.1-1-0.2-1.5c-0.1-0.5-0.3-0.9-0.5-1.3s-0.5-0.7-0.9-0.9s-0.8-0.3-1.3-0.3c-0.5,0-0.9,0.1-1.3,0.3
				c-0.4,0.2-0.6,0.5-0.9,0.9c-0.2,0.4-0.4,0.8-0.5,1.3c-0.1,0.5-0.2,1-0.2,1.5V61.4z"/>
			<path fill="#587EB8" d="M184.1,64.3c0-0.2,0-0.4-0.1-0.5c-0.1-0.2-0.2-0.3-0.4-0.4s-0.5-0.3-0.9-0.4c-0.4-0.1-0.8-0.2-1.4-0.4
				c-0.7-0.2-1.3-0.3-1.9-0.6s-1.1-0.5-1.5-0.8c-0.4-0.3-0.8-0.7-1-1.2s-0.4-1-0.4-1.5c0-0.6,0.1-1.1,0.4-1.6s0.6-1,1.1-1.3
				s1-0.7,1.7-0.9c0.7-0.2,1.4-0.3,2.3-0.3c0.9,0,1.7,0.1,2.4,0.3c0.7,0.2,1.3,0.5,1.8,0.9c0.5,0.4,0.9,0.8,1.1,1.4
				c0.3,0.5,0.4,1.1,0.4,1.8h-3.6c0-0.5-0.2-0.9-0.5-1.3c-0.3-0.3-0.9-0.5-1.6-0.5c-0.6,0-1.1,0.1-1.4,0.4c-0.3,0.3-0.5,0.6-0.5,1.1
				c0,0.2,0,0.4,0.1,0.5c0.1,0.2,0.2,0.3,0.4,0.4c0.2,0.1,0.5,0.2,0.8,0.4c0.3,0.1,0.7,0.2,1.2,0.3c0.7,0.1,1.4,0.3,2,0.5
				c0.6,0.2,1.2,0.5,1.6,0.8s0.8,0.7,1.1,1.2c0.3,0.5,0.4,1,0.4,1.7c0,0.6-0.1,1.2-0.4,1.7c-0.3,0.5-0.6,0.9-1.1,1.3
				c-0.5,0.4-1.1,0.7-1.8,0.9c-0.7,0.2-1.5,0.3-2.4,0.3c-1,0-1.8-0.1-2.5-0.4c-0.7-0.3-1.3-0.6-1.8-1.1c-0.5-0.4-0.9-0.9-1.1-1.5
				c-0.3-0.5-0.4-1.1-0.4-1.6h3.4c0,0.4,0.1,0.7,0.2,0.9s0.3,0.5,0.5,0.6c0.2,0.2,0.5,0.3,0.8,0.4c0.3,0.1,0.6,0.1,0.9,0.1
				c0.7,0,1.2-0.1,1.6-0.4C183.9,65.1,184.1,64.7,184.1,64.3z"/>
			<path fill="#587EB8" d="M203.1,61.4c0,1-0.1,1.9-0.3,2.7c-0.2,0.8-0.6,1.6-1,2.2c-0.4,0.6-1,1.1-1.6,1.4
				c-0.7,0.4-1.4,0.5-2.3,0.5c-0.7,0-1.4-0.1-1.9-0.4c-0.5-0.3-1-0.6-1.4-1.1v6.4h-3.6V54.5h3.4l0.1,1.3c0.4-0.5,0.9-0.9,1.5-1.2
				c0.6-0.3,1.2-0.4,2-0.4c0.9,0,1.6,0.2,2.3,0.5c0.7,0.3,1.2,0.8,1.7,1.4c0.4,0.6,0.8,1.3,1,2.2c0.2,0.8,0.3,1.8,0.3,2.8V61.4z
				 M199.4,61.1c0-0.6,0-1.1-0.1-1.6c-0.1-0.5-0.2-0.9-0.5-1.3c-0.2-0.4-0.5-0.6-0.8-0.8c-0.3-0.2-0.7-0.3-1.2-0.3
				c-0.6,0-1.1,0.1-1.5,0.3c-0.4,0.2-0.7,0.5-0.9,1V64c0.2,0.4,0.5,0.7,0.9,1s0.9,0.4,1.5,0.4c0.5,0,0.9-0.1,1.2-0.3
				c0.3-0.2,0.6-0.5,0.8-0.9c0.2-0.4,0.4-0.8,0.4-1.3c0.1-0.5,0.1-1,0.1-1.5V61.1z"/>
			<path fill="#587EB8" d="M214.1,68c-0.2-0.3-0.3-0.7-0.4-1.2c-0.4,0.4-0.8,0.8-1.4,1c-0.6,0.3-1.2,0.4-2,0.4
				c-0.7,0-1.3-0.1-1.8-0.3c-0.6-0.2-1.1-0.5-1.5-0.8s-0.7-0.8-1-1.3c-0.2-0.5-0.4-1-0.4-1.6c0-0.7,0.1-1.3,0.4-1.9
				c0.3-0.6,0.7-1,1.2-1.4c0.5-0.4,1.2-0.7,2-0.9s1.7-0.3,2.7-0.3h1.6V59c0-0.6-0.2-1.1-0.5-1.5c-0.3-0.4-0.8-0.6-1.5-0.6
				c-0.6,0-1.1,0.1-1.4,0.4c-0.3,0.3-0.5,0.7-0.5,1.2H206c0-0.6,0.1-1.1,0.4-1.7c0.3-0.5,0.7-1,1.2-1.4c0.5-0.4,1.1-0.7,1.8-0.9
				c0.7-0.2,1.5-0.3,2.4-0.3c0.8,0,1.5,0.1,2.2,0.3c0.7,0.2,1.2,0.5,1.7,0.9c0.5,0.4,0.9,0.9,1.1,1.5c0.3,0.6,0.4,1.3,0.4,2.1v5.7
				c0,0.4,0,0.7,0,1c0,0.3,0.1,0.6,0.1,0.8c0,0.2,0.1,0.5,0.2,0.7s0.1,0.4,0.2,0.6V68H214.1z M211.1,65.5c0.3,0,0.6,0,0.9-0.1
				s0.5-0.2,0.7-0.3c0.2-0.1,0.4-0.3,0.5-0.4c0.2-0.2,0.3-0.3,0.4-0.5v-2.3h-1.5c-0.5,0-0.9,0.1-1.2,0.2c-0.4,0.1-0.6,0.3-0.9,0.4
				c-0.2,0.2-0.4,0.4-0.5,0.7c-0.1,0.3-0.2,0.5-0.2,0.8c0,0.5,0.2,0.8,0.5,1.1C210.1,65.4,210.5,65.5,211.1,65.5z"/>
			<path fill="#587EB8" d="M226.6,65.4c0.3,0,0.6,0,0.9-0.1s0.5-0.2,0.7-0.4c0.2-0.2,0.4-0.4,0.5-0.6c0.1-0.2,0.2-0.5,0.2-0.8h3.4
				c0,0.7-0.2,1.4-0.5,2c-0.3,0.6-0.7,1.1-1.2,1.6c-0.5,0.4-1.1,0.8-1.8,1c-0.7,0.2-1.4,0.4-2.2,0.4c-1.1,0-2-0.2-2.8-0.5
				c-0.8-0.4-1.4-0.8-2-1.5c-0.5-0.6-0.9-1.3-1.2-2.2c-0.3-0.8-0.4-1.7-0.4-2.7v-0.4c0-1,0.1-1.9,0.4-2.7c0.3-0.8,0.6-1.6,1.2-2.2
				c0.5-0.6,1.2-1.1,1.9-1.5s1.7-0.5,2.7-0.5c0.8,0,1.6,0.1,2.3,0.4c0.7,0.2,1.3,0.6,1.8,1.1c0.5,0.5,0.9,1,1.2,1.7
				c0.3,0.7,0.4,1.4,0.4,2.2h-3.4c0-0.3-0.1-0.6-0.2-0.9s-0.3-0.5-0.4-0.8c-0.2-0.2-0.4-0.4-0.7-0.5c-0.3-0.1-0.6-0.2-1-0.2
				c-0.5,0-1,0.1-1.3,0.3c-0.3,0.2-0.6,0.5-0.8,0.9s-0.3,0.8-0.4,1.3s-0.1,1-0.1,1.5v0.4c0,0.5,0,1,0.1,1.5c0.1,0.5,0.2,0.9,0.4,1.3
				s0.4,0.6,0.8,0.9S226,65.4,226.6,65.4z"/>
			<path fill="#587EB8" d="M241.5,68.3c-1.1,0-2-0.2-2.8-0.5c-0.8-0.3-1.5-0.8-2.1-1.4c-0.6-0.6-1-1.3-1.3-2.1
				c-0.3-0.8-0.5-1.7-0.5-2.6v-0.5c0-1,0.1-2,0.4-2.8c0.3-0.9,0.7-1.6,1.3-2.2c0.5-0.6,1.2-1.1,2-1.4c0.8-0.3,1.7-0.5,2.6-0.5
				c1,0,1.8,0.2,2.6,0.5c0.7,0.3,1.4,0.8,1.9,1.4c0.5,0.6,0.9,1.3,1.1,2.1c0.3,0.8,0.4,1.7,0.4,2.7v1.5h-8.6
				c0.1,0.4,0.2,0.8,0.4,1.2c0.2,0.4,0.4,0.7,0.7,0.9c0.3,0.3,0.6,0.5,1,0.6c0.4,0.1,0.8,0.2,1.3,0.2c0.7,0,1.3-0.1,1.8-0.4
				s1-0.6,1.4-1.1l1.8,2c-0.2,0.3-0.5,0.6-0.8,0.9c-0.3,0.3-0.7,0.6-1.2,0.8c-0.4,0.2-0.9,0.4-1.5,0.6
				C242.7,68.2,242.1,68.3,241.5,68.3z M241.1,57.2c-0.4,0-0.7,0.1-1,0.2c-0.3,0.1-0.6,0.3-0.8,0.6c-0.2,0.2-0.4,0.5-0.5,0.9
				c-0.1,0.3-0.2,0.7-0.3,1.1h5v-0.3c0-0.4-0.1-0.7-0.2-1c-0.1-0.3-0.2-0.6-0.4-0.8s-0.4-0.4-0.8-0.5
				C241.8,57.2,241.5,57.2,241.1,57.2z"/>
			<path fill="#587EB8" d="M262,68h-4V48.5h4V68z"/>
			<path fill="#587EB8" d="M269.8,54.5l0.1,1.6c0.5-0.6,1-1,1.7-1.3c0.7-0.3,1.4-0.5,2.2-0.5c0.6,0,1.2,0.1,1.8,0.3
				c0.5,0.2,1,0.5,1.4,0.9s0.7,0.9,0.9,1.6s0.3,1.5,0.3,2.4V68h-3.6v-8.6c0-0.4,0-0.8-0.1-1.1s-0.2-0.5-0.4-0.7s-0.4-0.3-0.7-0.4
				c-0.3-0.1-0.6-0.1-0.9-0.1c-0.5,0-1,0.1-1.4,0.4c-0.4,0.2-0.7,0.6-0.9,1V68h-3.6V54.5H269.8z"/>
			<path fill="#587EB8" d="M281.2,61.2c0-1,0.1-2,0.4-2.8c0.2-0.9,0.6-1.6,1-2.2c0.5-0.6,1-1.1,1.7-1.4c0.7-0.3,1.4-0.5,2.3-0.5
				c0.7,0,1.3,0.1,1.8,0.4c0.5,0.3,1,0.6,1.4,1.1v-6.9h3.6V68h-3.3l-0.2-1.4c-0.4,0.5-0.9,1-1.5,1.2c-0.6,0.3-1.2,0.4-2,0.4
				c-0.8,0-1.6-0.2-2.2-0.5c-0.7-0.3-1.2-0.8-1.7-1.4c-0.5-0.6-0.8-1.3-1-2.2c-0.2-0.8-0.4-1.8-0.4-2.7V61.2z M284.8,61.4
				c0,0.6,0,1.1,0.1,1.5c0.1,0.5,0.2,0.9,0.4,1.2c0.2,0.4,0.5,0.6,0.8,0.8c0.3,0.2,0.7,0.3,1.2,0.3c0.6,0,1.1-0.1,1.5-0.4
				c0.4-0.3,0.7-0.6,0.9-1v-5.4c-0.2-0.5-0.5-0.8-0.9-1s-0.9-0.4-1.4-0.4c-0.5,0-0.9,0.1-1.2,0.3c-0.3,0.2-0.6,0.5-0.8,0.8
				c-0.2,0.4-0.4,0.8-0.5,1.3c-0.1,0.5-0.1,1-0.1,1.6V61.4z"/>
			<path fill="#587EB8" d="M305.3,66.7c-0.4,0.5-0.9,0.9-1.6,1.2c-0.6,0.3-1.3,0.4-2.2,0.4c-0.7,0-1.3-0.1-1.8-0.3
				c-0.6-0.2-1-0.5-1.4-0.9c-0.4-0.4-0.7-0.9-0.9-1.6c-0.2-0.6-0.3-1.4-0.3-2.3v-8.8h3.6v8.8c0,0.4,0,0.7,0.1,1
				c0.1,0.3,0.2,0.5,0.4,0.6c0.2,0.2,0.4,0.3,0.6,0.4c0.2,0.1,0.5,0.1,0.8,0.1c0.7,0,1.2-0.1,1.6-0.3c0.4-0.2,0.7-0.5,0.9-0.9v-9.6
				h3.6V68h-3.4L305.3,66.7z"/>
			<path fill="#587EB8" d="M319.8,64.3c0-0.2,0-0.4-0.1-0.5c-0.1-0.2-0.2-0.3-0.4-0.4s-0.5-0.3-0.9-0.4s-0.8-0.2-1.4-0.4
				c-0.7-0.2-1.3-0.3-1.9-0.6s-1.1-0.5-1.5-0.8c-0.4-0.3-0.8-0.7-1-1.2s-0.4-1-0.4-1.5c0-0.6,0.1-1.1,0.4-1.6c0.2-0.5,0.6-1,1.1-1.3
				c0.5-0.4,1-0.7,1.7-0.9c0.7-0.2,1.4-0.3,2.3-0.3c0.9,0,1.7,0.1,2.4,0.3c0.7,0.2,1.3,0.5,1.8,0.9c0.5,0.4,0.9,0.8,1.1,1.4
				c0.3,0.5,0.4,1.1,0.4,1.8h-3.6c0-0.5-0.2-0.9-0.5-1.3c-0.3-0.3-0.9-0.5-1.6-0.5c-0.6,0-1.1,0.1-1.4,0.4c-0.3,0.3-0.5,0.6-0.5,1.1
				c0,0.2,0,0.4,0.1,0.5c0.1,0.2,0.2,0.3,0.4,0.4c0.2,0.1,0.5,0.2,0.8,0.4c0.3,0.1,0.7,0.2,1.2,0.3c0.7,0.1,1.4,0.3,2,0.5
				s1.2,0.5,1.6,0.8s0.8,0.7,1.1,1.2s0.4,1,0.4,1.7c0,0.6-0.1,1.2-0.4,1.7c-0.3,0.5-0.6,0.9-1.1,1.3c-0.5,0.4-1.1,0.7-1.8,0.9
				c-0.7,0.2-1.5,0.3-2.4,0.3c-1,0-1.8-0.1-2.5-0.4c-0.7-0.3-1.3-0.6-1.8-1.1s-0.9-0.9-1.1-1.5c-0.3-0.5-0.4-1.1-0.4-1.6h3.4
				c0,0.4,0.1,0.7,0.2,0.9c0.1,0.3,0.3,0.5,0.5,0.6c0.2,0.2,0.5,0.3,0.8,0.4c0.3,0.1,0.6,0.1,0.9,0.1c0.7,0,1.2-0.1,1.6-0.4
				C319.6,65.1,319.8,64.7,319.8,64.3z"/>
			<path fill="#587EB8" d="M330.9,51.1v3.3h2.3v2.7h-2.3v6.8c0,0.3,0,0.5,0.1,0.7c0.1,0.2,0.1,0.3,0.3,0.4c0.1,0.1,0.3,0.2,0.4,0.2
				c0.2,0,0.4,0.1,0.6,0.1c0.2,0,0.4,0,0.6,0s0.3,0,0.5-0.1V68c-0.3,0.1-0.6,0.2-1,0.2c-0.4,0.1-0.8,0.1-1.2,0.1
				c-0.6,0-1.1-0.1-1.6-0.2c-0.5-0.1-0.9-0.4-1.2-0.7c-0.3-0.3-0.6-0.7-0.8-1.2c-0.2-0.5-0.3-1.1-0.3-1.8v-7.2h-2v-2.7h2v-3.3H330.9
				z"/>
			<path fill="#587EB8" d="M343.8,57.9c-0.2,0-0.4,0-0.6-0.1c-0.2,0-0.5,0-0.7,0c-0.7,0-1.3,0.1-1.7,0.4s-0.8,0.6-1,1V68h-3.6V54.5
				h3.4l0.1,1.6c0.3-0.6,0.8-1,1.3-1.4c0.5-0.3,1.1-0.5,1.8-0.5c0.2,0,0.4,0,0.6,0s0.4,0.1,0.5,0.1L343.8,57.9z"/>
			<path fill="#587EB8" d="M346.4,51c0-0.5,0.2-1,0.5-1.3c0.4-0.4,0.9-0.5,1.5-0.5c0.3,0,0.6,0,0.8,0.1c0.3,0.1,0.5,0.2,0.6,0.4
				c0.2,0.2,0.3,0.4,0.4,0.6c0.1,0.2,0.1,0.5,0.1,0.7c0,0.3,0,0.5-0.1,0.8c-0.1,0.2-0.2,0.4-0.4,0.6c-0.2,0.2-0.4,0.3-0.6,0.4
				c-0.3,0.1-0.5,0.1-0.8,0.1c-0.3,0-0.6,0-0.8-0.1s-0.5-0.2-0.6-0.4c-0.2-0.2-0.3-0.4-0.4-0.6C346.5,51.5,346.4,51.2,346.4,51z
				 M350.3,68h-3.6V54.5h3.6V68z"/>
			<path fill="#587EB8" d="M360.4,68.3c-1.1,0-2-0.2-2.8-0.5c-0.8-0.3-1.5-0.8-2.1-1.4c-0.6-0.6-1-1.3-1.3-2.1
				c-0.3-0.8-0.5-1.7-0.5-2.6v-0.5c0-1,0.1-2,0.4-2.8c0.3-0.9,0.7-1.6,1.3-2.2c0.5-0.6,1.2-1.1,2-1.4s1.7-0.5,2.6-0.5
				c1,0,1.8,0.2,2.6,0.5c0.7,0.3,1.4,0.8,1.9,1.4c0.5,0.6,0.9,1.3,1.1,2.1c0.3,0.8,0.4,1.7,0.4,2.7v1.5h-8.6
				c0.1,0.4,0.2,0.8,0.4,1.2c0.2,0.4,0.4,0.7,0.7,0.9c0.3,0.3,0.6,0.5,1,0.6c0.4,0.1,0.8,0.2,1.3,0.2c0.7,0,1.3-0.1,1.8-0.4
				s1-0.6,1.4-1.1l1.8,2c-0.2,0.3-0.5,0.6-0.8,0.9c-0.3,0.3-0.7,0.6-1.2,0.8c-0.4,0.2-0.9,0.4-1.5,0.6S361.1,68.3,360.4,68.3z
				 M360,57.2c-0.4,0-0.7,0.1-1,0.2c-0.3,0.1-0.6,0.3-0.8,0.6c-0.2,0.2-0.4,0.5-0.5,0.9c-0.1,0.3-0.2,0.7-0.3,1.1h5v-0.3
				c0-0.4-0.1-0.7-0.2-1c-0.1-0.3-0.2-0.6-0.4-0.8s-0.4-0.4-0.8-0.5S360.4,57.2,360,57.2z"/>
			<path fill="#587EB8" d="M376.3,64.3c0-0.2,0-0.4-0.1-0.5c-0.1-0.2-0.2-0.3-0.4-0.4s-0.5-0.3-0.9-0.4s-0.8-0.2-1.4-0.4
				c-0.7-0.2-1.3-0.3-1.9-0.6s-1.1-0.5-1.5-0.8c-0.4-0.3-0.8-0.7-1-1.2s-0.4-1-0.4-1.5c0-0.6,0.1-1.1,0.4-1.6c0.2-0.5,0.6-1,1.1-1.3
				c0.5-0.4,1-0.7,1.7-0.9c0.7-0.2,1.4-0.3,2.3-0.3c0.9,0,1.7,0.1,2.4,0.3c0.7,0.2,1.3,0.5,1.8,0.9c0.5,0.4,0.9,0.8,1.1,1.4
				c0.3,0.5,0.4,1.1,0.4,1.8h-3.6c0-0.5-0.2-0.9-0.5-1.3c-0.3-0.3-0.9-0.5-1.6-0.5c-0.6,0-1.1,0.1-1.4,0.4c-0.3,0.3-0.5,0.6-0.5,1.1
				c0,0.2,0,0.4,0.1,0.5c0.1,0.2,0.2,0.3,0.4,0.4c0.2,0.1,0.5,0.2,0.8,0.4c0.3,0.1,0.7,0.2,1.2,0.3c0.7,0.1,1.4,0.3,2,0.5
				s1.2,0.5,1.6,0.8s0.8,0.7,1.1,1.2s0.4,1,0.4,1.7c0,0.6-0.1,1.2-0.4,1.7c-0.3,0.5-0.6,0.9-1.1,1.3c-0.5,0.4-1.1,0.7-1.8,0.9
				c-0.7,0.2-1.5,0.3-2.4,0.3c-1,0-1.8-0.1-2.5-0.4c-0.7-0.3-1.3-0.6-1.8-1.1s-0.9-0.9-1.1-1.5c-0.3-0.5-0.4-1.1-0.4-1.6h3.4
				c0,0.4,0.1,0.7,0.2,0.9c0.1,0.3,0.3,0.5,0.5,0.6c0.2,0.2,0.5,0.3,0.8,0.4c0.3,0.1,0.6,0.1,0.9,0.1c0.7,0,1.2-0.1,1.6-0.4
				C376.1,65.1,376.3,64.7,376.3,64.3z"/>
			<path fill="#587EB8" d="M401.8,64h-7.1l-1.3,4h-4.3l7.3-19.6h3.7l7.3,19.6h-4.3L401.8,64z M395.8,60.7h4.9l-2.5-7.3L395.8,60.7z"
				/>
			<path fill="#587EB8" d="M417.3,64.3c0-0.2,0-0.4-0.1-0.5c-0.1-0.2-0.2-0.3-0.4-0.4s-0.5-0.3-0.9-0.4s-0.8-0.2-1.4-0.4
				c-0.7-0.2-1.3-0.3-1.9-0.6s-1.1-0.5-1.5-0.8c-0.4-0.3-0.8-0.7-1-1.2s-0.4-1-0.4-1.5c0-0.6,0.1-1.1,0.4-1.6c0.2-0.5,0.6-1,1.1-1.3
				c0.5-0.4,1-0.7,1.7-0.9c0.7-0.2,1.4-0.3,2.3-0.3c0.9,0,1.7,0.1,2.4,0.3c0.7,0.2,1.3,0.5,1.8,0.9c0.5,0.4,0.9,0.8,1.1,1.4
				c0.3,0.5,0.4,1.1,0.4,1.8h-3.6c0-0.5-0.2-0.9-0.5-1.3c-0.3-0.3-0.9-0.5-1.6-0.5c-0.6,0-1.1,0.1-1.4,0.4c-0.3,0.3-0.5,0.6-0.5,1.1
				c0,0.2,0,0.4,0.1,0.5c0.1,0.2,0.2,0.3,0.4,0.4c0.2,0.1,0.5,0.2,0.8,0.4c0.3,0.1,0.7,0.2,1.2,0.3c0.7,0.1,1.4,0.3,2,0.5
				s1.2,0.5,1.6,0.8s0.8,0.7,1.1,1.2s0.4,1,0.4,1.7c0,0.6-0.1,1.2-0.4,1.7c-0.3,0.5-0.6,0.9-1.1,1.3c-0.5,0.4-1.1,0.7-1.8,0.9
				c-0.7,0.2-1.5,0.3-2.4,0.3c-1,0-1.8-0.1-2.5-0.4c-0.7-0.3-1.3-0.6-1.8-1.1s-0.9-0.9-1.1-1.5c-0.3-0.5-0.4-1.1-0.4-1.6h3.4
				c0,0.4,0.1,0.7,0.2,0.9c0.1,0.3,0.3,0.5,0.5,0.6c0.2,0.2,0.5,0.3,0.8,0.4c0.3,0.1,0.6,0.1,0.9,0.1c0.7,0,1.2-0.1,1.6-0.4
				C417.2,65.1,417.3,64.7,417.3,64.3z"/>
			<path fill="#587EB8" d="M431.5,64.3c0-0.2,0-0.4-0.1-0.5c-0.1-0.2-0.2-0.3-0.4-0.4s-0.5-0.3-0.9-0.4s-0.8-0.2-1.4-0.4
				c-0.7-0.2-1.3-0.3-1.9-0.6s-1.1-0.5-1.5-0.8c-0.4-0.3-0.8-0.7-1-1.2s-0.4-1-0.4-1.5c0-0.6,0.1-1.1,0.4-1.6c0.2-0.5,0.6-1,1.1-1.3
				c0.5-0.4,1-0.7,1.7-0.9c0.7-0.2,1.4-0.3,2.3-0.3c0.9,0,1.7,0.1,2.4,0.3c0.7,0.2,1.3,0.5,1.8,0.9c0.5,0.4,0.9,0.8,1.1,1.4
				c0.3,0.5,0.4,1.1,0.4,1.8h-3.6c0-0.5-0.2-0.9-0.5-1.3c-0.3-0.3-0.9-0.5-1.6-0.5c-0.6,0-1.1,0.1-1.4,0.4c-0.3,0.3-0.5,0.6-0.5,1.1
				c0,0.2,0,0.4,0.1,0.5c0.1,0.2,0.2,0.3,0.4,0.4c0.2,0.1,0.5,0.2,0.8,0.4c0.3,0.1,0.7,0.2,1.2,0.3c0.7,0.1,1.4,0.3,2,0.5
				s1.2,0.5,1.6,0.8s0.8,0.7,1.1,1.2s0.4,1,0.4,1.7c0,0.6-0.1,1.2-0.4,1.7c-0.3,0.5-0.6,0.9-1.1,1.3c-0.5,0.4-1.1,0.7-1.8,0.9
				c-0.7,0.2-1.5,0.3-2.4,0.3c-1,0-1.8-0.1-2.5-0.4c-0.7-0.3-1.3-0.6-1.8-1.1s-0.9-0.9-1.1-1.5c-0.3-0.5-0.4-1.1-0.4-1.6h3.4
				c0,0.4,0.1,0.7,0.2,0.9c0.1,0.3,0.3,0.5,0.5,0.6c0.2,0.2,0.5,0.3,0.8,0.4c0.3,0.1,0.6,0.1,0.9,0.1c0.7,0,1.2-0.1,1.6-0.4
				C431.3,65.1,431.5,64.7,431.5,64.3z"/>
			<path fill="#587EB8" d="M437.7,61.1c0-1,0.1-1.9,0.4-2.7s0.7-1.6,1.2-2.2s1.2-1.1,2-1.4c0.8-0.4,1.7-0.5,2.7-0.5
				c1,0,1.9,0.2,2.7,0.5c0.8,0.4,1.5,0.8,2,1.4s1,1.3,1.2,2.2s0.4,1.8,0.4,2.7v0.3c0,1-0.1,1.9-0.4,2.8s-0.7,1.6-1.2,2.2
				s-1.2,1.1-2,1.4s-1.7,0.5-2.7,0.5c-1,0-1.9-0.2-2.7-0.5s-1.5-0.8-2-1.4c-0.5-0.6-1-1.3-1.2-2.2s-0.4-1.8-0.4-2.8V61.1z
				 M441.3,61.4c0,0.6,0,1.1,0.2,1.6s0.3,0.9,0.5,1.3c0.2,0.4,0.5,0.6,0.9,0.8c0.4,0.2,0.8,0.3,1.3,0.3c0.5,0,0.9-0.1,1.3-0.3
				s0.6-0.5,0.9-0.8c0.2-0.4,0.4-0.8,0.5-1.3c0.1-0.5,0.2-1,0.2-1.6v-0.3c0-0.5,0-1-0.2-1.5c-0.1-0.5-0.3-0.9-0.5-1.3
				s-0.5-0.7-0.9-0.9c-0.4-0.2-0.8-0.3-1.3-0.3c-0.5,0-0.9,0.1-1.3,0.3c-0.4,0.2-0.6,0.5-0.9,0.9s-0.4,0.8-0.5,1.3
				c-0.1,0.5-0.2,1-0.2,1.5V61.4z"/>
			<path fill="#587EB8" d="M459.3,65.4c0.3,0,0.6,0,0.9-0.1c0.3-0.1,0.5-0.2,0.7-0.4c0.2-0.2,0.4-0.4,0.5-0.6
				c0.1-0.2,0.2-0.5,0.2-0.8h3.4c0,0.7-0.2,1.4-0.5,2c-0.3,0.6-0.7,1.1-1.2,1.6c-0.5,0.4-1.1,0.8-1.8,1c-0.7,0.2-1.4,0.4-2.2,0.4
				c-1.1,0-2-0.2-2.8-0.5c-0.8-0.4-1.4-0.8-2-1.5c-0.5-0.6-0.9-1.3-1.2-2.2c-0.3-0.8-0.4-1.7-0.4-2.7v-0.4c0-1,0.1-1.9,0.4-2.7
				c0.3-0.8,0.6-1.6,1.2-2.2c0.5-0.6,1.2-1.1,1.9-1.5s1.7-0.5,2.7-0.5c0.8,0,1.6,0.1,2.3,0.4c0.7,0.2,1.3,0.6,1.8,1.1
				c0.5,0.5,0.9,1,1.2,1.7c0.3,0.7,0.4,1.4,0.4,2.2h-3.4c0-0.3-0.1-0.6-0.2-0.9s-0.3-0.5-0.4-0.8c-0.2-0.2-0.4-0.4-0.7-0.5
				s-0.6-0.2-1-0.2c-0.5,0-1,0.1-1.3,0.3c-0.3,0.2-0.6,0.5-0.8,0.9c-0.2,0.4-0.3,0.8-0.4,1.3c-0.1,0.5-0.1,1-0.1,1.5v0.4
				c0,0.5,0,1,0.1,1.5c0.1,0.5,0.2,0.9,0.4,1.3c0.2,0.4,0.4,0.6,0.8,0.9S458.8,65.4,459.3,65.4z"/>
			<path fill="#587EB8" d="M468,51c0-0.5,0.2-1,0.5-1.3c0.4-0.4,0.9-0.5,1.5-0.5c0.3,0,0.6,0,0.8,0.1c0.3,0.1,0.5,0.2,0.6,0.4
				c0.2,0.2,0.3,0.4,0.4,0.6c0.1,0.2,0.1,0.5,0.1,0.7c0,0.3,0,0.5-0.1,0.8c-0.1,0.2-0.2,0.4-0.4,0.6c-0.2,0.2-0.4,0.3-0.6,0.4
				c-0.3,0.1-0.5,0.1-0.8,0.1c-0.3,0-0.6,0-0.8-0.1s-0.5-0.2-0.6-0.4c-0.2-0.2-0.3-0.4-0.4-0.6C468,51.5,468,51.2,468,51z M471.8,68
				h-3.6V54.5h3.6V68z"/>
			<path fill="#587EB8" d="M483.6,68c-0.2-0.3-0.3-0.7-0.4-1.2c-0.4,0.4-0.8,0.8-1.4,1c-0.6,0.3-1.2,0.4-2,0.4
				c-0.7,0-1.3-0.1-1.8-0.3c-0.6-0.2-1.1-0.5-1.5-0.8c-0.4-0.4-0.7-0.8-1-1.3c-0.2-0.5-0.4-1-0.4-1.6c0-0.7,0.1-1.3,0.4-1.9
				c0.3-0.6,0.7-1,1.2-1.4c0.5-0.4,1.2-0.7,2-0.9s1.7-0.3,2.7-0.3h1.6V59c0-0.6-0.2-1.1-0.5-1.5c-0.3-0.4-0.8-0.6-1.5-0.6
				c-0.6,0-1.1,0.1-1.4,0.4c-0.3,0.3-0.5,0.7-0.5,1.2h-3.6c0-0.6,0.1-1.1,0.4-1.7s0.7-1,1.2-1.4c0.5-0.4,1.1-0.7,1.8-0.9
				c0.7-0.2,1.5-0.3,2.4-0.3c0.8,0,1.5,0.1,2.2,0.3c0.7,0.2,1.2,0.5,1.7,0.9c0.5,0.4,0.9,0.9,1.1,1.5c0.3,0.6,0.4,1.3,0.4,2.1v5.7
				c0,0.4,0,0.7,0,1c0,0.3,0.1,0.6,0.1,0.8c0,0.2,0.1,0.5,0.2,0.7c0.1,0.2,0.1,0.4,0.2,0.6V68H483.6z M480.6,65.5
				c0.3,0,0.6,0,0.9-0.1c0.3-0.1,0.5-0.2,0.7-0.3c0.2-0.1,0.4-0.3,0.5-0.4c0.2-0.2,0.3-0.3,0.4-0.5v-2.3h-1.5
				c-0.5,0-0.9,0.1-1.2,0.2c-0.4,0.1-0.6,0.3-0.9,0.4c-0.2,0.2-0.4,0.4-0.5,0.7s-0.2,0.5-0.2,0.8c0,0.5,0.2,0.8,0.5,1.1
				C479.6,65.4,480,65.5,480.6,65.5z"/>
			<path fill="#587EB8" d="M494.7,51.1v3.3h2.3v2.7h-2.3v6.8c0,0.3,0,0.5,0.1,0.7c0.1,0.2,0.1,0.3,0.3,0.4c0.1,0.1,0.3,0.2,0.4,0.2
				c0.2,0,0.4,0.1,0.6,0.1c0.2,0,0.4,0,0.6,0s0.3,0,0.5-0.1V68c-0.3,0.1-0.6,0.2-1,0.2c-0.4,0.1-0.8,0.1-1.2,0.1
				c-0.6,0-1.1-0.1-1.6-0.2c-0.5-0.1-0.9-0.4-1.2-0.7c-0.3-0.3-0.6-0.7-0.8-1.2c-0.2-0.5-0.3-1.1-0.3-1.8v-7.2h-2v-2.7h2v-3.3H494.7
				z"/>
			<path fill="#587EB8" d="M500,51c0-0.5,0.2-1,0.5-1.3c0.4-0.4,0.9-0.5,1.5-0.5c0.3,0,0.6,0,0.8,0.1c0.3,0.1,0.5,0.2,0.6,0.4
				c0.2,0.2,0.3,0.4,0.4,0.6c0.1,0.2,0.1,0.5,0.1,0.7c0,0.3,0,0.5-0.1,0.8c-0.1,0.2-0.2,0.4-0.4,0.6c-0.2,0.2-0.4,0.3-0.6,0.4
				c-0.3,0.1-0.5,0.1-0.8,0.1c-0.3,0-0.6,0-0.8-0.1s-0.5-0.2-0.6-0.4c-0.2-0.2-0.3-0.4-0.4-0.6C500,51.5,500,51.2,500,51z M503.8,68
				h-3.6V54.5h3.6V68z"/>
			<path fill="#587EB8" d="M507.2,61.1c0-1,0.1-1.9,0.4-2.7s0.7-1.6,1.2-2.2s1.2-1.1,2-1.4c0.8-0.4,1.7-0.5,2.7-0.5
				c1,0,1.9,0.2,2.7,0.5c0.8,0.4,1.5,0.8,2,1.4s1,1.3,1.2,2.2s0.4,1.8,0.4,2.7v0.3c0,1-0.1,1.9-0.4,2.8s-0.7,1.6-1.2,2.2
				s-1.2,1.1-2,1.4s-1.7,0.5-2.7,0.5c-1,0-1.9-0.2-2.7-0.5s-1.5-0.8-2-1.4c-0.5-0.6-1-1.3-1.2-2.2s-0.4-1.8-0.4-2.8V61.1z
				 M510.8,61.4c0,0.6,0,1.1,0.2,1.6s0.3,0.9,0.5,1.3c0.2,0.4,0.5,0.6,0.9,0.8c0.4,0.2,0.8,0.3,1.3,0.3c0.5,0,0.9-0.1,1.3-0.3
				s0.6-0.5,0.9-0.8c0.2-0.4,0.4-0.8,0.5-1.3c0.1-0.5,0.2-1,0.2-1.6v-0.3c0-0.5,0-1-0.2-1.5c-0.1-0.5-0.3-0.9-0.5-1.3
				s-0.5-0.7-0.9-0.9c-0.4-0.2-0.8-0.3-1.3-0.3c-0.5,0-0.9,0.1-1.3,0.3c-0.4,0.2-0.6,0.5-0.9,0.9s-0.4,0.8-0.5,1.3
				c-0.1,0.5-0.2,1-0.2,1.5V61.4z"/>
			<path fill="#587EB8" d="M526.5,54.5l0.1,1.6c0.5-0.6,1-1,1.7-1.3s1.4-0.5,2.2-0.5c0.6,0,1.2,0.1,1.8,0.3c0.5,0.2,1,0.5,1.4,0.9
				s0.7,0.9,0.9,1.6c0.2,0.7,0.3,1.5,0.3,2.4V68h-3.6v-8.6c0-0.4,0-0.8-0.1-1.1c-0.1-0.3-0.2-0.5-0.4-0.7c-0.2-0.2-0.4-0.3-0.7-0.4
				c-0.3-0.1-0.6-0.1-0.9-0.1c-0.5,0-1,0.1-1.4,0.4c-0.4,0.2-0.7,0.6-0.9,1V68h-3.6V54.5H526.5z"/>
			<path fill="#587EB8" d="M545.8,64.3c0-0.2,0-0.4-0.1-0.5c-0.1-0.2-0.2-0.3-0.4-0.4s-0.5-0.3-0.9-0.4s-0.8-0.2-1.4-0.4
				c-0.7-0.2-1.3-0.3-1.9-0.6s-1.1-0.5-1.5-0.8c-0.4-0.3-0.8-0.7-1-1.2s-0.4-1-0.4-1.5c0-0.6,0.1-1.1,0.4-1.6c0.2-0.5,0.6-1,1.1-1.3
				c0.5-0.4,1-0.7,1.7-0.9c0.7-0.2,1.4-0.3,2.3-0.3c0.9,0,1.7,0.1,2.4,0.3c0.7,0.2,1.3,0.5,1.8,0.9c0.5,0.4,0.9,0.8,1.1,1.4
				c0.3,0.5,0.4,1.1,0.4,1.8h-3.6c0-0.5-0.2-0.9-0.5-1.3c-0.3-0.3-0.9-0.5-1.6-0.5c-0.6,0-1.1,0.1-1.4,0.4c-0.3,0.3-0.5,0.6-0.5,1.1
				c0,0.2,0,0.4,0.1,0.5c0.1,0.2,0.2,0.3,0.4,0.4c0.2,0.1,0.5,0.2,0.8,0.4c0.3,0.1,0.7,0.2,1.2,0.3c0.7,0.1,1.4,0.3,2,0.5
				s1.2,0.5,1.6,0.8s0.8,0.7,1.1,1.2s0.4,1,0.4,1.7c0,0.6-0.1,1.2-0.4,1.7c-0.3,0.5-0.6,0.9-1.1,1.3c-0.5,0.4-1.1,0.7-1.8,0.9
				c-0.7,0.2-1.5,0.3-2.4,0.3c-1,0-1.8-0.1-2.5-0.4c-0.7-0.3-1.3-0.6-1.8-1.1s-0.9-0.9-1.1-1.5c-0.3-0.5-0.4-1.1-0.4-1.6h3.4
				c0,0.4,0.1,0.7,0.2,0.9c0.1,0.3,0.3,0.5,0.5,0.6c0.2,0.2,0.5,0.3,0.8,0.4c0.3,0.1,0.6,0.1,0.9,0.1c0.7,0,1.2-0.1,1.6-0.4
				C545.6,65.1,545.8,64.7,545.8,64.3z"/>
		</g>
	</g>
</g>
</svg>
