<?xml version="1.0" encoding="utf-8"?>
<!-- Generator: Adobe Illustrator 18.1.1, SVG Export Plug-In . SVG Version: 6.00 Build 0)  -->
<svg version="1.1" id="Layer_1" xmlns="http://www.w3.org/2000/svg" xmlns:xlink="http://www.w3.org/1999/xlink" x="0px" y="0px"
	 viewBox="0 0 120 120" enable-background="new 0 0 120 120" xml:space="preserve">
<g>
	<polygon fill="#FFFFFF" points="19.4,43.1 59.9,117.4 59.9,96.7 	"/>
	<polygon fill="#FFFFFF" points="105.2,32.5 60.1,95.3 60,81.8 	"/>
	<path fill="none" stroke="#00019B" stroke-linecap="round" stroke-miterlimit="10" d="M61,33.4"/>
	<g>
		<path fill="#577DB8" d="M39.3,27.4l-10.4-6.8l1.4-2.1l10.4,6.8L39.3,27.4z"/>
		<path fill="#577DB8" d="M44.6,15.3l2.4-0.9c0.5,1.3,0.7,2.5,0.4,3.5c-0.3,1.1-0.9,2-2,2.8c-1.3,1-2.7,1.4-4.2,1.2
			c-1.5-0.2-2.9-1.1-4.1-2.6c-1.3-1.6-1.9-3.2-1.7-4.8c0.1-1.6,0.9-2.9,2.2-4c1.2-0.9,2.4-1.4,3.7-1.2c0.8,0.1,1.6,0.4,2.4,1l-1.6,2
			c-0.5-0.4-1.1-0.6-1.7-0.6c-0.6,0-1.2,0.2-1.7,0.6c-0.7,0.6-1.1,1.3-1.1,2.2c0,0.9,0.4,1.9,1.3,3c1,1.2,1.9,1.9,2.7,2.1
			c0.9,0.2,1.6,0,2.3-0.6c0.5-0.4,0.8-0.9,0.9-1.6C45.2,16.9,45,16.2,44.6,15.3z"/>
		<path fill="#577DB8" d="M57.1,11l2.5,0.3c-0.1,1.4-0.5,2.5-1.2,3.3c-0.7,0.8-1.7,1.4-3,1.6c-1.6,0.3-3,0.1-4.3-0.8
			c-1.3-0.9-2.1-2.3-2.5-4.2c-0.4-2-0.2-3.7,0.6-5C50,4.8,51.2,4,52.9,3.6c1.5-0.3,2.8-0.1,3.9,0.6c0.7,0.4,1.2,1.1,1.7,2l-2.3,1.1
			c-0.3-0.6-0.7-1-1.2-1.3c-0.5-0.3-1.1-0.3-1.8-0.2c-0.9,0.2-1.6,0.7-2,1.4C50.8,7.9,50.7,9,51,10.5c0.3,1.5,0.8,2.6,1.5,3.1
			c0.7,0.5,1.5,0.7,2.4,0.5c0.7-0.1,1.2-0.5,1.5-1C56.8,12.6,57,11.9,57.1,11z"/>
		<path fill="#577DB8" d="M72.1,17.9l-2.6-0.7l-0.3-3L64.4,13l-1.7,2.5l-2.6-0.7L67.9,4l2.6,0.7L72.1,17.9z M68.9,12l-0.5-4.9
			l-2.8,4L68.9,12z"/>
		<path fill="#577DB8" d="M72.1,18.8l6.8-10.4L81,9.8l-6.8,10.4L72.1,18.8z"/>
		<path fill="#577DB8" d="M82.6,29.5l-1.7-2.1l1.5-2.6l-3.1-3.9l-2.8,0.9l-1.6-2.1l12.7-3.9l1.6,2.1L82.6,29.5z M83.6,22.8l2.5-4.2
			l-4.6,1.5L83.6,22.8z"/>
	</g>
	<g>
		<path fill="#FFFFFF" stroke="#577DB8" stroke-miterlimit="10" d="M83.9,42.9C83.9,56.1,73,67,59.8,67S36.2,56.3,36.2,43.1
			s10.7-23.9,23.9-23.9S83.9,29.7,83.9,42.9z"/>
		<path fill="none" stroke="#577DB8" stroke-miterlimit="10" d="M70.6,43.1c0,13.2-5.3,23.9-11.4,23.9S48.1,56.3,48.1,43.1
			s5-23.9,11.1-23.9S70.6,30,70.6,43.1z"/>
		<path fill="#577DB8" d="M59.2,67.2l0-47.1c0-0.5,0.5-0.7,0.6-0.7s0.5,0.2,0.5,0.7l-0.2,47.3"/>
		<path fill="#577DB8" d="M36.9,44l46.7,0c0.5,0,0.4,0.7,0.4,0.8s-0.4,0.6-0.9,0.6H36.9V44z"/>
		<path fill="none" stroke="#577DB8" stroke-linecap="round" stroke-miterlimit="10" d="M45.6,62c2.9-3.1,8.6-4.7,14.7-4.7
			c6.1,0,10.9,1.6,13.8,4.8"/>
		<path fill="none" stroke="#577DB8" stroke-linecap="round" stroke-miterlimit="10" d="M74.1,24.8c-2.9,3.1-8.6,4.7-14.7,4.7
			c-6.1,0-10.9-1.6-13.8-4.8"/>
	</g>
	<g>
		<polyline fill="#577DB8" points="60,80.3 2.7,17.1 60.1,94.5 		"/>
		<polyline fill="#577DB8" points="60,95.5 60,93.9 105.3,32.3 60,81.9 59.9,80.3 117.3,17.4 		"/>
		<g>
			<polyline fill="none" points="60.1,115.6 11.3,30.3 60,95.4 			"/>
			<path fill="#FFFFFF" d="M110.4,27.6"/>
			<path fill="#577DB8" d="M60.1,114.7L19.6,43.3L58.5,95L60,97 M60,93.8L2.7,17.1l57.4,100.4"/>
		</g>
		<g>
			<polyline fill="none" points="59.9,113.7 108.7,28.3 60,93.5 			"/>
			<path fill="#FFFFFF" d="M9.6,25.6"/>
			<path fill="#577DB8" d="M59.9,117.5l57.4-100.4L60,93.8"/>
		</g>
	</g>
</g>
</svg>
