<?xml version="1.0" encoding="utf-8"?>
<!-- Generator: Adobe Illustrator 18.1.1, SVG Export Plug-In . SVG Version: 6.00 Build 0)  -->
<svg version="1.1" id="Layer_1" xmlns="http://www.w3.org/2000/svg" xmlns:xlink="http://www.w3.org/1999/xlink" x="0px" y="0px"
	 viewBox="0 0 25 25" enable-background="new 0 0 25 25" xml:space="preserve">
<path fill="#587EB8" d="M24.7,21.4L20.4,17c1.1-1.7,1.7-3.8,1.7-5.9c0-6.1-4.9-11-11-11s-11,4.9-11,11s4.9,11,11,11
	c2.2,0,4.2-0.6,5.9-1.7l4.3,4.3c0.3,0.3,0.8,0.3,1.1,0l2.2-2.2C25,22.2,25,21.7,24.7,21.4z M11.1,19c-4.3,0-7.9-3.5-7.9-7.9
	s3.5-7.9,7.9-7.9S19,6.7,19,11.1S15.4,19,11.1,19z"/>
</svg>
